# This file uses centimeters as units for non-parametric coordinates.

mtllib Ant_Larva.mtl
g default
v -0.066476 -0.012878 0.155939
v 0.066476 -0.012878 0.155939
v -0.066476 0.103149 0.155939
v 0.066476 0.103149 0.155939
v -0.030589 0.018441 0.216920
v 0.030589 0.018441 0.216920
v 0.030589 0.071831 0.216920
v -0.030589 0.071831 0.216920
v -0.087777 0.121740 0.061225
v 0.087777 0.121740 0.061225
v 0.087777 -0.031468 0.061225
v -0.087777 -0.031468 0.061225
v -0.066908 0.101172 -0.157232
v 0.066908 0.101172 -0.157232
v 0.066908 -0.010901 -0.157232
v -0.066908 -0.010901 -0.157232
v -0.025315 0.066337 -0.223675
v 0.025315 0.066337 -0.223675
v 0.025315 0.023935 -0.223675
v -0.025315 0.023935 -0.223675
v -0.093048 0.124989 -0.040588
v 0.093048 0.124989 -0.040588
v 0.093048 -0.034718 -0.040588
v -0.093048 -0.034718 -0.040588
vt 0.943733 0.641799
vt 0.690267 0.066461
vt 0.796674 0.500929
vt 0.755514 0.288102
vt 0.655190 0.255899
vt 0.692617 0.484373
vt 0.558347 0.493751
vt 0.520732 0.249770
vt 0.825059 0.012680
vt 0.149984 0.470341
vt 0.197720 0.727045
vt 0.071158 0.195231
vt 0.593132 0.025636
vt 0.978107 0.542198
vt 0.992188 0.408339
vt 0.459720 0.007813
vt 0.768195 0.287968
vt 0.426123 0.516076
vt 0.273972 0.598046
vt 0.229186 0.329157
vt 0.478700 0.735242
vt 0.162364 0.061487
vt 0.342261 0.264859
vt 0.938858 0.110175
vt 0.479871 0.246015
vt 0.984895 0.269637
vt 0.611763 0.695419
vt 0.320900 0.012354
vt 0.177725 0.243056
vt 0.313047 0.745569
vt 0.608392 0.206032
vt 0.733070 0.637101
vt 0.697290 0.149470
vt 0.815289 0.571206
vt 0.769732 0.143342
vt 0.762710 0.060333
vt 0.382836 0.266393
vt 0.784307 0.425925
vt 0.561567 0.485310
vt 0.423017 0.525018
vt 0.786791 0.123039
vt 0.260313 0.508696
vt 0.820675 0.555516
vt 0.686115 0.434278
vt 0.871291 0.647928
vt 0.769744 0.370183
vt 0.882594 0.007813
vt 0.013624 0.200098
vt 0.138207 0.402412
vt 0.065347 0.126534
vt 0.007813 0.131402
vt 0.182936 0.671230
vn 0.000000 0.000000 1.000000
vn 0.000000 0.000000 1.000000
vn 0.000000 0.000000 1.000000
vn 0.000000 0.000000 1.000000
vn 0.000000 0.981277 0.192601
vn 0.000000 0.981277 0.192601
vn 0.000000 0.981277 0.192601
vn 0.000000 0.981277 0.192601
vn 0.000000 0.000000 -1.000000
vn 0.000000 0.000000 -1.000000
vn 0.000000 0.000000 -1.000000
vn 0.000000 0.000000 -1.000000
vn 0.000000 -0.981277 0.192601
vn 0.000000 -0.981277 0.192601
vn 0.000000 -0.981277 0.192601
vn 0.000000 -0.981277 0.192601
vn -0.975630 0.000000 0.219422
vn -0.975630 0.000000 0.219422
vn -0.975630 0.000000 0.219422
vn -0.975630 0.000000 0.219422
vn 0.000000 -0.889543 0.456852
vn 0.000000 -0.889543 0.456852
vn 0.000000 -0.889543 0.456852
vn 0.000000 -0.889543 0.456852
vn 0.861837 0.000000 0.507186
vn 0.861837 0.000000 0.507186
vn 0.861837 0.000000 0.507186
vn 0.861836 0.000000 0.507186
vn 0.000000 0.889543 0.456852
vn 0.000000 0.889543 0.456852
vn 0.000000 0.889543 0.456852
vn 0.000000 0.889543 0.456852
vn -0.861837 0.000000 0.507186
vn -0.861837 0.000000 0.507186
vn -0.861837 0.000000 0.507186
vn -0.861836 0.000000 0.507187
vn 0.000000 0.979784 -0.200056
vn 0.000000 0.979784 -0.200057
vn 0.000000 0.979784 -0.200057
vn 0.000000 0.979784 -0.200057
vn 0.975798 0.000000 -0.218673
vn 0.975798 0.000000 -0.218673
vn 0.975798 0.000000 -0.218673
vn 0.975798 0.000000 -0.218673
vn 0.000000 -0.979784 -0.200057
vn 0.000000 -0.979784 -0.200057
vn 0.000000 -0.979784 -0.200057
vn 0.000000 -0.979784 -0.200057
vn -0.975798 0.000000 -0.218673
vn -0.975798 0.000000 -0.218673
vn -0.975798 0.000000 -0.218673
vn -0.975798 0.000000 -0.218673
vn 0.000000 0.885656 -0.464342
vn 0.000000 0.885656 -0.464342
vn 0.000000 0.885656 -0.464342
vn 0.000000 0.885656 -0.464343
vn 0.847613 0.000000 -0.530615
vn 0.847613 0.000000 -0.530615
vn 0.847613 0.000000 -0.530615
vn 0.847614 0.000000 -0.530614
vn 0.000000 -0.885656 -0.464342
vn 0.000000 -0.885656 -0.464342
vn 0.000000 -0.885656 -0.464342
vn 0.000000 -0.885656 -0.464342
vn -0.847613 0.000000 -0.530614
vn -0.847613 0.000000 -0.530614
vn -0.847613 0.000000 -0.530614
vn -0.847613 0.000000 -0.530615
vn 0.000000 0.999491 0.031904
vn 0.000000 0.999491 0.031904
vn 0.000000 0.999491 0.031904
vn 0.000000 0.999491 0.031904
vn 0.998663 0.000000 0.051698
vn 0.998663 0.000000 0.051698
vn 0.998663 0.000000 0.051698
vn 0.998663 0.000000 0.051698
vn 0.000000 -0.999491 0.031904
vn 0.000000 -0.999491 0.031904
vn 0.000000 -0.999491 0.031904
vn 0.000000 -0.999491 0.031904
vn -0.998663 0.000000 0.051698
vn -0.998663 0.000000 0.051698
vn -0.998663 0.000000 0.051698
vn -0.998663 0.000000 0.051698
vn 0.975630 0.000000 0.219422
vn 0.975630 0.000000 0.219422
vn 0.975630 0.000000 0.219422
vn 0.975630 0.000000 0.219422
s 1
g Ant_Worker:pCube1
usemtl Ant_Worker:initialShadingGroup
f 5/33/1 6/2/2 8/35/3
f 8/35/3 6/2/2 7/36/4
s 2
f 3/5/5 4/44/6 9/8/7
f 9/8/7 4/44/6 10/39/8
s 3
f 17/48/9 18/51/10 20/12/11
f 20/12/11 18/51/10 19/50/12
s 4
f 2/13/13 1/31/14 11/16/15
f 11/16/15 1/31/14 12/25/16
s 5
f 1/14/17 3/43/18 12/15/19
f 12/15/19 3/43/18 9/38/20
s 6
f 1/31/21 2/13/22 5/33/23
f 5/33/23 2/13/22 6/2/24
s 7
f 2/32/25 4/6/26 6/34/27
f 6/34/27 4/6/26 7/3/28
s 8
f 4/44/29 3/5/30 7/46/31
f 7/46/31 3/5/30 8/4/32
s 9
f 3/43/33 1/14/34 8/45/35
f 8/45/35 1/14/34 5/1/36
s 10
f 21/37/37 22/18/38 13/20/39
f 13/20/39 22/18/38 14/42/40
s 11
f 22/40/41 23/21/42 14/19/43
f 14/19/43 23/21/42 15/30/44
s 12
f 23/28/45 24/23/46 15/22/47
f 15/22/47 24/23/46 16/29/48
s 13
f 24/26/49 21/17/50 16/24/51
f 16/24/51 21/17/50 13/41/52
s 14
f 13/20/53 14/42/54 17/49/55
f 17/49/55 14/42/54 18/10/56
s 15
f 14/19/57 15/30/58 18/52/59
f 18/52/59 15/30/58 19/11/60
s 16
f 15/22/61 16/29/62 19/50/63
f 19/50/63 16/29/62 20/12/64
s 17
f 16/24/65 13/41/66 20/47/67
f 20/47/67 13/41/66 17/9/68
s 18
f 9/8/69 10/39/70 21/37/71
f 21/37/71 10/39/70 22/18/72
s 19
f 10/7/73 11/27/74 22/40/75
f 22/40/75 11/27/74 23/21/76
s 20
f 11/16/77 12/25/78 23/28/79
f 23/28/79 12/25/78 24/23/80
s 21
f 12/15/81 9/38/82 24/26/83
f 24/26/83 9/38/82 21/17/84
s 22
f 4/6/85 2/32/86 10/7/87
f 10/7/87 2/32/86 11/27/88
g default
v -0.066476 -0.012878 0.155939
v 0.066476 -0.012878 0.155939
v -0.066476 0.103149 0.155939
v 0.066476 0.103149 0.155939
v -0.030589 0.018441 0.216920
v 0.030589 0.018441 0.216920
v 0.030589 0.071831 0.216920
v -0.030589 0.071831 0.216920
v -0.087777 0.121740 0.061225
v 0.087777 0.121740 0.061225
v 0.087777 -0.031468 0.061225
v -0.087777 -0.031468 0.061225
v -0.066908 0.101172 -0.157232
v 0.066908 0.101172 -0.157232
v 0.066908 -0.010901 -0.157232
v -0.066908 -0.010901 -0.157232
v -0.025315 0.066337 -0.223675
v 0.025315 0.066337 -0.223675
v 0.025315 0.023935 -0.223675
v -0.025315 0.023935 -0.223675
v -0.093048 0.124989 -0.040588
v 0.093048 0.124989 -0.040588
v 0.093048 -0.034718 -0.040588
v -0.093048 -0.034718 -0.040588
vt 0.943733 0.641799
vt 0.690267 0.066461
vt 0.796674 0.500929
vt 0.755514 0.288102
vt 0.655190 0.255899
vt 0.692617 0.484373
vt 0.558347 0.493751
vt 0.520732 0.249770
vt 0.825059 0.012680
vt 0.149984 0.470341
vt 0.197720 0.727045
vt 0.071158 0.195231
vt 0.593132 0.025636
vt 0.978107 0.542198
vt 0.992188 0.408339
vt 0.459720 0.007813
vt 0.768195 0.287968
vt 0.426123 0.516076
vt 0.273972 0.598046
vt 0.229186 0.329157
vt 0.478700 0.735242
vt 0.162364 0.061487
vt 0.342261 0.264859
vt 0.938858 0.110175
vt 0.479871 0.246015
vt 0.984895 0.269637
vt 0.611763 0.695419
vt 0.320900 0.012354
vt 0.177725 0.243056
vt 0.313047 0.745569
vt 0.608392 0.206032
vt 0.733070 0.637101
vt 0.697290 0.149470
vt 0.815289 0.571206
vt 0.769732 0.143342
vt 0.762710 0.060333
vt 0.382836 0.266393
vt 0.784307 0.425925
vt 0.561567 0.485310
vt 0.423017 0.525018
vt 0.786791 0.123039
vt 0.260313 0.508696
vt 0.820675 0.555516
vt 0.686115 0.434278
vt 0.871291 0.647928
vt 0.769744 0.370183
vt 0.882594 0.007813
vt 0.013624 0.200098
vt 0.138207 0.402412
vt 0.065347 0.126534
vt 0.007813 0.131402
vt 0.182936 0.671230
vn 0.000000 0.000000 1.000000
vn 0.000000 0.000000 1.000000
vn 0.000000 0.000000 1.000000
vn 0.000000 0.000000 1.000000
vn 0.000000 0.981277 0.192601
vn 0.000000 0.981277 0.192601
vn 0.000000 0.981277 0.192601
vn 0.000000 0.981277 0.192601
vn 0.000000 0.000000 -1.000000
vn 0.000000 0.000000 -1.000000
vn 0.000000 0.000000 -1.000000
vn 0.000000 0.000000 -1.000000
vn 0.000000 -0.981277 0.192601
vn 0.000000 -0.981277 0.192601
vn 0.000000 -0.981277 0.192601
vn 0.000000 -0.981277 0.192601
vn -0.975630 0.000000 0.219422
vn -0.975630 0.000000 0.219422
vn -0.975630 0.000000 0.219422
vn -0.975630 0.000000 0.219422
vn 0.000000 -0.889543 0.456852
vn 0.000000 -0.889543 0.456852
vn 0.000000 -0.889543 0.456852
vn 0.000000 -0.889543 0.456852
vn 0.861837 0.000000 0.507186
vn 0.861837 0.000000 0.507186
vn 0.861837 0.000000 0.507186
vn 0.861836 0.000000 0.507186
vn 0.000000 0.889543 0.456852
vn 0.000000 0.889543 0.456852
vn 0.000000 0.889543 0.456852
vn 0.000000 0.889543 0.456852
vn -0.861837 0.000000 0.507186
vn -0.861837 0.000000 0.507186
vn -0.861837 0.000000 0.507186
vn -0.861836 0.000000 0.507187
vn 0.000000 0.979784 -0.200056
vn 0.000000 0.979784 -0.200057
vn 0.000000 0.979784 -0.200057
vn 0.000000 0.979784 -0.200057
vn 0.975798 0.000000 -0.218673
vn 0.975798 0.000000 -0.218673
vn 0.975798 0.000000 -0.218673
vn 0.975798 0.000000 -0.218673
vn 0.000000 -0.979784 -0.200057
vn 0.000000 -0.979784 -0.200057
vn 0.000000 -0.979784 -0.200057
vn 0.000000 -0.979784 -0.200057
vn -0.975798 0.000000 -0.218673
vn -0.975798 0.000000 -0.218673
vn -0.975798 0.000000 -0.218673
vn -0.975798 0.000000 -0.218673
vn 0.000000 0.885656 -0.464342
vn 0.000000 0.885656 -0.464342
vn 0.000000 0.885656 -0.464342
vn 0.000000 0.885656 -0.464343
vn 0.847613 0.000000 -0.530615
vn 0.847613 0.000000 -0.530615
vn 0.847613 0.000000 -0.530615
vn 0.847614 0.000000 -0.530614
vn 0.000000 -0.885656 -0.464342
vn 0.000000 -0.885656 -0.464342
vn 0.000000 -0.885656 -0.464342
vn 0.000000 -0.885656 -0.464342
vn -0.847613 0.000000 -0.530614
vn -0.847613 0.000000 -0.530614
vn -0.847613 0.000000 -0.530614
vn -0.847613 0.000000 -0.530615
vn 0.000000 0.999491 0.031904
vn 0.000000 0.999491 0.031904
vn 0.000000 0.999491 0.031904
vn 0.000000 0.999491 0.031904
vn 0.998663 0.000000 0.051698
vn 0.998663 0.000000 0.051698
vn 0.998663 0.000000 0.051698
vn 0.998663 0.000000 0.051698
vn 0.000000 -0.999491 0.031904
vn 0.000000 -0.999491 0.031904
vn 0.000000 -0.999491 0.031904
vn 0.000000 -0.999491 0.031904
vn -0.998663 0.000000 0.051698
vn -0.998663 0.000000 0.051698
vn -0.998663 0.000000 0.051698
vn -0.998663 0.000000 0.051698
vn 0.975630 0.000000 0.219422
vn 0.975630 0.000000 0.219422
vn 0.975630 0.000000 0.219422
vn 0.975630 0.000000 0.219422
s 1
g Ant_Worker:pCube1
f 29/85/89 30/54/90 32/87/91
f 32/87/91 30/54/90 31/88/92
s 2
f 27/57/93 28/96/94 33/60/95
f 33/60/95 28/96/94 34/91/96
s 3
f 41/100/97 42/103/98 44/64/99
f 44/64/99 42/103/98 43/102/100
s 4
f 26/65/101 25/83/102 35/68/103
f 35/68/103 25/83/102 36/77/104
s 5
f 25/66/105 27/95/106 36/67/107
f 36/67/107 27/95/106 33/90/108
s 6
f 25/83/109 26/65/110 29/85/111
f 29/85/111 26/65/110 30/54/112
s 7
f 26/84/113 28/58/114 30/86/115
f 30/86/115 28/58/114 31/55/116
s 8
f 28/96/117 27/57/118 31/98/119
f 31/98/119 27/57/118 32/56/120
s 9
f 27/95/121 25/66/122 32/97/123
f 32/97/123 25/66/122 29/53/124
s 10
f 45/89/125 46/70/126 37/72/127
f 37/72/127 46/70/126 38/94/128
s 11
f 46/92/129 47/73/130 38/71/131
f 38/71/131 47/73/130 39/82/132
s 12
f 47/80/133 48/75/134 39/74/135
f 39/74/135 48/75/134 40/81/136
s 13
f 48/78/137 45/69/138 40/76/139
f 40/76/139 45/69/138 37/93/140
s 14
f 37/72/141 38/94/142 41/101/143
f 41/101/143 38/94/142 42/62/144
s 15
f 38/71/145 39/82/146 42/104/147
f 42/104/147 39/82/146 43/63/148
s 16
f 39/74/149 40/81/150 43/102/151
f 43/102/151 40/81/150 44/64/152
s 17
f 40/76/153 37/93/154 44/99/155
f 44/99/155 37/93/154 41/61/156
s 18
f 33/60/157 34/91/158 45/89/159
f 45/89/159 34/91/158 46/70/160
s 19
f 34/59/161 35/79/162 46/92/163
f 46/92/163 35/79/162 47/73/164
s 20
f 35/68/165 36/77/166 47/80/167
f 47/80/167 36/77/166 48/75/168
s 21
f 36/67/169 33/90/170 48/78/171
f 48/78/171 33/90/170 45/69/172
s 22
f 28/58/173 26/84/174 34/59/175
f 34/59/175 26/84/174 35/79/176
