# This file uses centimeters as units for non-parametric coordinates.

mtllib Cross.mtl
g default
v 250.000000 -250.000000 250.000000
v 250.000000 250.000000 250.000000
v -250.000000 -250.000000 250.000000
v -250.000000 250.000000 250.000000
v -250.000000 -250.000000 -250.000000
v -250.000000 250.000000 -250.000000
v 250.000000 -250.000000 -250.000000
v 250.000000 250.000000 -250.000000
v 250.000000 250.000000 -99.999992
v -250.000000 250.000000 -100.000000
v -250.000000 250.000000 99.999992
v 250.000000 250.000000 100.000000
v -100.000000 250.000000 -250.000000
v -99.999969 250.000000 99.999992
v -100.000000 250.000000 250.000000
v 100.000015 249.999985 250.000000
v 99.932480 250.000015 100.000000
v 99.932449 250.000015 -100.100662
v 100.000000 250.000000 -250.100662
v 250.000000 99.999969 99.999992
v 100.000000 100.000000 250.000000
v -99.999992 99.999992 250.000000
v -250.000000 100.000000 100.000000
v -250.000000 100.000000 -99.999992
v -100.000000 100.000000 -250.000000
v 99.999992 99.999992 -250.000000
v 250.000000 100.000000 -100.000000
v -99.999992 99.999977 -100.100670
v -100.000000 100.000000 99.899338
v 99.932457 100.000023 99.999992
v 99.932457 100.000008 -100.100662
v -100.000000 250.000000 -100.100685
vt 0.550000 0.175000
vt 0.373513 0.248078
vt 0.375136 -0.001397
vt 0.550000 0.075000
vt 0.550000 0.425000
vt 0.374944 0.500135
vt 0.550000 0.325000
vt 0.376446 0.746505
vt 0.550000 0.575000
vt 0.550000 0.675000
vt 0.375092 0.999780
vt 0.550000 0.825000
vt 0.550000 0.925000
vt 0.125000 0.250000
vt 0.125000 0.000000
vt 0.638771 0.716715
vt 0.625000 0.500000
vt 0.626526 0.243125
vt 0.625000 0.999999
vt 0.625000 0.175000
vt 0.663386 0.340000
vt 0.700000 0.250000
vt 0.627048 -0.020939
vt 0.700000 0.000000
vt 0.667242 0.409976
vt 0.625000 0.075000
vt 0.749979 0.372870
vt 0.711690 0.407028
vt 0.800000 0.000000
vt 0.865809 -0.008498
vt 0.625000 0.925000
vt 0.625000 0.325000
vt 0.625000 0.425000
vt 0.625000 0.575000
vt 0.625000 0.825000
vt 0.550000 0.547070
vt 0.569446 0.502100
vt 0.550000 0.744919
vt 0.549836 0.699651
vt 0.800000 0.250000
vt 0.800000 0.175000
vt 0.875000 0.175000
vt 0.875008 0.250000
vt 0.625000 0.545000
vn 0.000000 0.000000 1.000000
vn 0.000000 0.000000 1.000000
vn 0.000000 0.000000 1.000000
vn 0.000000 0.000000 1.000000
vn -1.000000 0.000000 0.000000
vn -1.000000 0.000000 0.000000
vn -1.000000 0.000000 0.000000
vn -1.000000 0.000000 0.000000
vn 0.000000 0.000000 -1.000000
vn 0.000000 0.000000 -1.000000
vn 0.000000 0.000000 -1.000000
vn 0.000018 -0.000018 -1.000000
vn 1.000000 -0.000000 0.000000
vn 1.000000 -0.000000 0.000000
vn 1.000000 -0.000000 0.000000
vn 1.000000 -0.000000 0.000000
vn -0.000000 -1.000000 0.000000
vn -0.000000 -1.000000 0.000000
vn -0.000000 -1.000000 0.000000
vn -0.000000 -1.000000 0.000000
vn 1.000000 -0.000000 0.000000
vn 1.000000 -0.000000 0.000000
vn 1.000000 -0.000000 0.000000
vn -1.000000 0.000000 0.000000
vn -1.000000 0.000000 0.000000
vn -1.000000 0.000000 0.000000
vn -1.000000 0.000000 0.000000
vn -1.000000 0.000000 0.000000
vn -1.000000 0.000000 0.000000
vn 1.000000 -0.000000 0.000000
vn 1.000000 -0.000000 0.000000
vn 1.000000 -0.000000 0.000000
vn 0.000000 0.000000 -1.000000
vn 0.000000 0.000000 -1.000000
vn 0.000000 0.000000 -1.000000
vn 0.000000 1.000000 0.000000
vn 0.000000 1.000000 0.000000
vn 0.000000 1.000000 0.000000
vn 0.000000 1.000000 0.000000
vn 0.000000 0.000000 1.000000
vn 0.000000 0.000000 1.000000
vn 0.000000 0.000000 1.000000
vn 0.000000 0.000000 1.000000
vn 0.000000 0.000000 1.000000
vn 0.000000 0.000000 1.000000
vn 0.000000 1.000000 0.000000
vn 0.000000 1.000000 0.000000
vn 0.000000 1.000000 0.000000
vn 0.000000 1.000000 0.000000
vn 0.000000 1.000000 0.000000
vn 0.000000 1.000000 0.000000
vn 0.000000 1.000000 0.000000
vn 0.000000 1.000000 0.000000
vn 0.000000 0.000000 -1.000000
vn 0.000018 -0.000018 -1.000000
vn 0.000155 -0.000155 -1.000000
vn 1.000000 -0.000000 0.000000
vn 1.000000 -0.000000 0.000000
vn 1.000000 -0.000000 0.000000
vn 0.000000 0.000000 1.000000
vn 0.000000 0.000000 1.000000
vn 0.000000 0.000000 1.000000
vn 0.000000 0.000000 1.000000
vn 0.000000 0.000000 1.000000
vn 0.000000 0.000000 1.000000
vn -1.000000 0.000000 0.000000
vn -1.000000 0.000000 0.000000
vn -1.000000 0.000000 0.000000
vn -1.000000 0.000000 0.000000
vn -1.000000 0.000000 0.000000
vn -1.000000 0.000000 0.000000
vn 0.000000 0.000000 -1.000000
vn 0.000000 0.000000 -1.000000
vn 0.000000 0.000000 -1.000000
vn 0.000155 -0.000155 -1.000000
vn 0.000018 -0.000018 -1.000000
vn 0.000671 -0.000671 -1.000000
vn 1.000000 -0.000000 0.000000
vn 1.000000 -0.000000 0.000000
vn 1.000000 -0.000000 0.000000
vn 0.000000 1.000000 0.000000
vn 0.000000 1.000000 0.000000
vn 0.000000 1.000000 0.000000
vn 0.000000 1.000000 0.000000
vn 0.000000 1.000000 0.000000
vn 0.000000 1.000000 0.000000
vn 0.000000 1.000000 0.000000
vn 0.000000 1.000000 0.000000
vn -0.000336 0.000336 -1.000000
vn -0.000336 0.000336 -1.000000
vn -0.000336 0.000336 -1.000000
vn -0.000336 0.000336 -1.000000
vn 0.000000 0.000000 -1.000000
vn 0.000000 0.000000 -1.000000
vn 0.000000 0.000000 -1.000000
vn 0.000000 0.000000 -1.000000
vn 0.000000 1.000000 0.000000
vn 0.000000 1.000000 0.000000
vn 0.000000 1.000000 0.000000
vn 0.000000 1.000000 0.000000
vn -0.000671 0.000000 1.000000
vn -0.000671 0.000000 1.000000
vn -0.000671 0.000000 1.000000
vn -0.000671 0.000000 1.000000
vn 0.000000 1.000000 0.000000
vn 0.000000 1.000000 0.000000
vn 0.000000 1.000000 0.000000
vn 0.000000 1.000000 0.000000
vn 0.000671 -0.000000 1.000000
vn 0.000671 -0.000000 1.000000
vn 0.000671 -0.000000 1.000000
vn 0.000671 -0.000000 1.000000
vn 1.000000 -0.000000 0.000000
vn 1.000000 -0.000000 0.000000
vn 1.000000 -0.000000 0.000000
vn 1.000000 -0.000000 0.000000
vn 1.000000 -0.000000 0.000000
vn 1.000000 -0.000000 0.000000
vn 1.000000 -0.000000 0.000000
vn 1.000000 -0.000000 0.000000
vn -1.000000 0.000000 0.000450
vn -1.000000 0.000000 0.000450
vn -1.000000 0.000000 0.000450
vn -1.000000 0.000000 0.000450
vn -1.000000 0.000000 -0.000451
vn -1.000000 0.000000 -0.000451
vn -1.000000 0.000000 -0.000451
vn -1.000000 0.000000 -0.000451
vn 0.000000 1.000000 0.000000
vn 0.000000 1.000000 0.000000
vn 0.000000 1.000000 0.000000
vn 0.000000 1.000000 0.000000
vn 0.000000 1.000000 0.000000
vn 0.000000 1.000000 0.000000
vn 0.000000 1.000000 0.000000
vn 0.000000 1.000000 0.000000
s off
g Cross
usemtl initialShadingGroup1
f 22/1/1 3/2/2 1/3/3 21/4/4
f 24/5/5 5/6/6 3/2/7 23/7/8
f 7/8/9 5/6/10 25/9/11 26/10/12
f 1/11/13 7/8/14 27/12/15 20/13/16
f 3/2/17 5/14/18 7/15/19 1/3/20
f 8/16/21 27/12/22 7/8/23
f 5/6/24 24/5/25 6/17/26
f 4/18/27 23/7/28 3/2/29
f 1/11/30 20/13/31 2/19/32
f 6/17/33 25/9/34 5/6/35
f 15/20/36 14/21/37 11/22/38 4/18/39
f 3/2/40 22/1/41 4/18/42
f 1/3/43 2/23/44 21/4/45
f 2/23/46 12/24/47 17/25/48 16/26/49
f 19/27/50 18/28/51 9/29/52 8/30/53
f 7/8/54 26/10/55 8/16/56
f 2/19/57 20/13/58 12/31/59
f 16/26/60 21/4/61 2/23/62
f 4/18/63 22/1/64 15/20/65
f 11/32/66 23/7/67 4/18/68
f 6/17/69 24/5/70 10/33/71
f 13/34/72 25/9/73 6/17/74
f 8/16/75 26/10/76 19/27/77
f 9/35/78 27/12/79 8/16/80
f 28/36/81 29/37/82 30/38/83 31/39/84
f 24/5/85 23/7/86 29/37/87 28/36/88
f 14/21/89 29/37/90 23/7/91 11/32/92
f 12/31/93 20/13/94 30/38/95 17/25/96
f 30/38/97 20/13/98 27/12/99 31/39/100
f 18/28/101 31/39/102 27/12/103 9/35/104
f 10/40/105 32/41/106 13/42/107 6/43/108
f 28/36/109 32/44/110 10/33/111 24/5/112
f 25/9/113 13/34/114 32/44/115 28/36/116
f 15/20/117 22/1/118 29/37/119 14/21/120
f 21/4/121 16/26/122 17/25/123 30/38/124
f 19/27/125 26/10/126 31/39/127 18/28/128
f 28/36/129 31/39/130 26/10/131 25/9/132
f 30/38/133 29/37/134 22/1/135 21/4/136
