# This file uses centimeters as units for non-parametric coordinates.

mtllib Curve.mtl
g default
v 250.000000 -250.000000 250.000000
v 250.000000 250.000000 250.000000
v -250.000000 -250.000000 250.000000
v -250.000000 250.000000 250.000000
v -250.000000 -250.000000 -250.000000
v -250.000000 250.000000 -250.000000
v 250.000000 -250.000000 -250.000000
v 250.000000 250.000000 -250.000000
v -250.000000 250.000000 -100.000000
v -250.000000 250.000000 99.999992
v -99.999992 250.000000 99.999992
v -100.000000 250.000000 250.000000
v 100.000008 250.000000 250.000000
v 100.000008 250.000000 -100.000000
v 100.000000 100.000000 250.000000
v -99.999992 99.999992 250.000000
v -250.000000 100.000000 100.000000
v -250.000000 100.000008 -99.999992
v 99.999992 99.999992 -99.999992
v -100.459702 100.000000 100.000000
vt 0.550000 0.075000
vt 0.550000 0.175000
vt 0.375125 0.000108
vt 0.775000 0.162500
vt 0.275000 0.212500
vt 0.366614 0.525496
vt 0.398845 0.270560
vt 0.656553 0.509979
vt 0.628468 0.747491
vt 0.371326 0.750751
vt 0.373322 1.000766
vt 0.625343 0.999953
vt 0.125331 0.250286
vt 0.122000 -0.002587
vt 0.800000 0.075000
vt 0.884757 -0.009756
vt 0.853125 0.271875
vt 0.712500 0.337500
vt 0.610547 0.258734
vt 0.625000 0.175000
vt 0.700000 0.175000
vt 0.662500 0.287500
vt 0.624991 -0.000008
vt 0.625000 0.075000
vt 0.065627 0.878343
vt 1.000000 0.427258
vt 0.625343 0.999953
vn 0.000000 0.000000 1.000000
vn 0.000000 0.000000 1.000000
vn 0.000000 0.000000 1.000000
vn -1.000000 0.000000 0.000000
vn -1.000000 0.000000 0.000000
vn -1.000000 0.000000 0.000000
vn -1.000000 0.000000 0.000000
vn 0.000000 0.000000 -1.000000
vn 0.000000 0.000000 -1.000000
vn 0.000000 0.000000 -1.000000
vn 0.000000 0.000000 -1.000000
vn 1.000000 -0.000000 0.000000
vn 1.000000 -0.000000 0.000000
vn 1.000000 -0.000000 0.000000
vn 1.000000 -0.000000 0.000000
vn -0.000000 -1.000000 0.000000
vn -0.000000 -1.000000 0.000000
vn -0.000000 -1.000000 0.000000
vn -0.000000 -1.000000 0.000000
vn 0.000000 1.000000 0.000000
vn 0.000000 1.000000 0.000000
vn 0.000000 1.000000 0.000000
vn 0.000000 1.000000 0.000000
vn -1.000000 0.000000 0.000000
vn -1.000000 0.000000 0.000000
vn -1.000000 0.000000 0.000000
vn -1.000000 0.000000 0.000000
vn -1.000000 0.000000 0.000000
vn -1.000000 0.000000 0.000000
vn 0.000000 1.000000 0.000000
vn 0.000000 1.000000 0.000000
vn 0.000000 1.000000 0.000000
vn 0.000000 1.000000 0.000000
vn 0.000000 0.000000 1.000000
vn 0.000000 0.000000 1.000000
vn 0.000000 0.000000 1.000000
vn 0.000000 0.000000 1.000000
vn 0.000000 0.000000 1.000000
vn 0.000000 0.000000 1.000000
vn 0.000000 0.000000 1.000000
vn 0.000000 0.000000 1.000000
vn 0.000000 0.000000 1.000000
vn 0.000000 0.000000 1.000000
vn 0.000000 0.000000 1.000000
vn 0.000000 0.000000 1.000000
vn 0.000000 0.000000 1.000000
vn -1.000000 0.000000 0.000000
vn -1.000000 0.000000 0.000000
vn -1.000000 0.000000 0.000000
vn -1.000000 0.000000 0.000000
vn -1.000000 0.000000 0.000000
vn -1.000000 0.000000 0.000000
vn 0.000000 1.000000 0.000000
vn 0.000000 1.000000 0.000000
vn 0.000000 1.000000 0.000000
vn 0.000000 1.000000 0.000000
vn 0.000000 1.000000 0.000000
vn 0.000000 1.000000 0.000000
vn 0.000000 1.000000 0.000000
vn 0.000000 1.000000 0.000000
vn 0.000000 0.000000 1.000000
vn 0.000000 0.000000 1.000000
vn 0.000000 0.000000 1.000000
vn 0.000000 0.000000 1.000000
vn -0.000000 0.000000 -1.000000
vn -0.000000 0.000000 -1.000000
vn -0.000000 0.000000 -1.000000
vn -0.000000 0.000000 -1.000000
vn 0.999998 -0.001532 -0.001532
vn 0.999998 -0.001532 -0.001532
vn 0.999998 -0.001532 -0.001532
vn 0.999998 -0.001532 -0.001532
vn -1.000000 0.000000 0.000000
vn -1.000000 0.000000 0.000000
vn -1.000000 0.000000 0.000000
vn -1.000000 0.000000 0.000000
vn 0.000000 1.000000 0.000000
vn 0.000000 1.000000 0.000000
vn 0.000000 1.000000 0.000000
vn 0.000000 1.000000 0.000000
s off
g Curve
usemtl initialShadingGroup1
f 15/1/1 16/2/2 1/3/3
f 17/4/4 18/5/5 5/6/6 3/7/7
f 6/8/8 8/9/9 7/10/10 5/6/11
f 1/11/12 7/10/13 8/9/14 2/12/15
f 3/7/16 5/13/17 7/14/18 1/3/19
f 14/15/20 8/16/21 6/17/22 9/18/23
f 18/5/24 6/8/25 5/6/26
f 4/19/27 17/4/28 3/7/29
f 12/20/30 11/21/31 10/22/32 4/19/33
f 16/2/34 4/19/35 3/7/36 1/3/37
f 1/3/38 2/23/39 15/1/40
f 13/24/41 15/1/42 2/23/43
f 4/19/44 16/2/45 12/20/46
f 10/22/47 17/4/48 4/19/49
f 6/8/50 18/5/51 9/18/52
f 19/25/53 18/5/54 17/4/55 20/26/56
f 19/25/57 20/26/58 16/2/59 15/1/60
f 19/25/61 14/15/62 9/18/63 18/5/64
f 10/22/65 11/21/66 20/26/67 17/4/68
f 12/20/69 16/2/70 20/26/71 11/21/72
f 19/25/73 15/1/74 13/24/75 14/15/76
f 8/16/77 14/15/78 13/24/79 2/27/80
