# This file uses centimeters as units for non-parametric coordinates.

mtllib Ground.mtl
g default
v 250.000000 -250.000000 250.000000
v 250.000000 250.000000 250.000000
v -250.000000 -250.000000 250.000000
v -250.000000 250.000000 250.000000
v -250.000000 -250.000000 -250.000000
v 250.000000 -250.000000 -250.000000
v 250.000000 250.000000 -250.000000
v -250.000000 250.000000 99.999992
v 99.932480 250.000015 100.000000
v 100.000000 250.000000 -250.100662
v -250.000000 100.000000 100.000000
v -250.000000 100.000000 -250.000000
v 99.999992 99.999992 -250.000000
v 99.932457 100.000023 99.999992
vt 0.373908 0.247399
vt 0.375819 -0.001984
vt 0.633877 0.004374
vt 0.627753 0.236867
vt 0.375000 0.500000
vt 0.550000 0.325000
vt 0.550000 0.500000
vt 0.375000 0.750000
vt 0.550000 0.675000
vt 0.371101 1.009424
vt 0.635778 0.723949
vt 0.629152 0.989964
vt 0.125000 0.250000
vt 0.125000 0.000000
vt 0.625000 0.325000
vt 0.749979 0.372870
vt 0.550000 0.744919
vt 0.667242 0.409976
vt 0.851907 -0.009235
vt 0.700000 0.250000
vn 0.000000 0.000000 1.000000
vn 0.000000 0.000000 1.000000
vn 0.000000 0.000000 1.000000
vn 0.000000 0.000000 1.000000
vn -1.000000 0.000000 0.000000
vn -1.000000 0.000000 0.000000
vn -1.000000 0.000000 0.000000
vn -1.000000 0.000000 0.000000
vn 0.000000 0.000000 -1.000000
vn 0.000000 0.000000 -1.000000
vn 0.000000 0.000000 -1.000000
vn 0.000016 -0.000016 -1.000000
vn 1.000000 -0.000000 0.000000
vn 1.000000 -0.000000 0.000000
vn 1.000000 -0.000000 0.000000
vn 1.000000 -0.000000 0.000000
vn -0.000000 -1.000000 0.000000
vn -0.000000 -1.000000 0.000000
vn -0.000000 -1.000000 0.000000
vn -0.000000 -1.000000 0.000000
vn -1.000000 0.000000 0.000000
vn -1.000000 0.000000 0.000000
vn -1.000000 0.000000 0.000000
vn 0.000016 -0.000016 -1.000000
vn 0.000155 -0.000155 -1.000000
vn 0.000000 0.000000 -1.000000
vn -1.000000 0.000000 0.000000
vn -1.000000 0.000000 0.000000
vn -1.000000 0.000000 0.000000
vn 0.000155 -0.000155 -1.000000
vn 0.000016 -0.000016 -1.000000
vn 0.000671 -0.000671 -1.000000
vn 0.000000 1.000000 0.000000
vn 0.000000 1.000000 0.000000
vn 0.000000 1.000000 0.000000
vn 0.000000 1.000000 0.000000
vn -1.000000 0.000000 -0.000193
vn -1.000000 0.000000 -0.000193
vn -1.000000 0.000000 -0.000193
vn -1.000000 0.000000 -0.000193
vn 0.000000 1.000000 0.000000
vn 0.000000 1.000000 0.000000
vn 0.000000 1.000000 0.000000
vn 0.000000 1.000000 0.000000
vn 0.000000 0.000000 -1.000000
vn 0.000000 0.000000 -1.000000
vn 0.000000 0.000000 -1.000000
vn 0.000000 0.000000 -1.000000
vn 0.000000 1.000000 0.000000
vn 0.000000 1.000000 0.000000
vn 0.000000 1.000000 0.000000
vn 0.000000 1.000000 0.000000
s off
g Ground_Edge
usemtl initialShadingGroup1
f 3/1/1 1/2/2 2/3/3 4/4/4
f 5/5/5 3/1/6 11/6/7 12/7/8
f 6/8/9 5/5/10 12/7/11 13/9/12
f 1/10/13 6/8/14 7/11/15 2/12/16
f 5/13/17 6/14/18 1/2/19 3/1/20
f 4/4/21 11/6/22 3/1/23
f 13/9/24 7/11/25 6/8/26
f 8/15/27 11/6/28 4/4/29
f 7/11/30 13/9/31 10/16/32
f 14/17/33 13/9/34 12/7/35 11/6/36
f 13/9/37 14/17/38 9/18/39 10/16/40
f 7/19/41 10/16/42 9/18/43 2/3/44
f 14/17/45 11/6/46 8/15/47 9/18/48
f 8/20/49 4/4/50 2/3/51 9/18/52
