# This file uses centimeters as units for non-parametric coordinates.

mtllib Ground_Exit.mtl
g default
v 250.000000 -250.000000 250.000000
v 250.000000 250.000000 250.000000
v -250.000000 -250.000000 250.000000
v -250.000000 250.000000 250.000000
v -250.000000 -250.000000 -250.000000
v 250.000000 -250.000000 -250.000000
v 250.000000 250.000000 -250.000000
v -250.000000 250.000000 99.999992
v -99.999969 250.000000 99.999992
v -100.000000 250.000000 250.000000
v 100.000015 249.999985 250.000000
v 100.000000 250.000000 -250.100662
v 100.000000 100.000000 250.000000
v -99.999992 99.999992 250.000000
v -250.000000 100.000000 100.000000
v -250.000000 100.000000 -250.000000
v 99.999992 99.999992 -250.000000
v -100.000000 100.000000 99.899338
vt 0.550000 0.175000
vt 0.372253 0.239689
vt 0.375414 -0.014068
vt 0.543964 0.255674
vt 0.550000 0.325000
vt 0.375230 0.502279
vt 0.626620 0.243403
vt 0.374970 0.748618
vt 0.550241 0.511160
vt 0.550000 0.675000
vt 0.626195 0.997268
vt 0.374993 0.999655
vt 0.635790 0.723972
vt 0.125700 0.250700
vt 0.125000 0.000000
vt 0.625000 0.175000
vt 0.663386 0.340000
vt 0.700000 0.250000
vt 0.641598 -0.033739
vt 0.626763 0.154349
vt 0.625000 0.325000
vt 0.749979 0.372870
vt 0.569446 0.502100
vt 0.847021 0.050213
vn 0.000000 0.000000 1.000000
vn 0.000000 0.000000 1.000000
vn 0.000000 0.000000 1.000000
vn 0.000000 0.000000 1.000000
vn -1.000000 0.000000 0.000000
vn -1.000000 0.000000 0.000000
vn -1.000000 0.000000 0.000000
vn -1.000000 0.000000 0.000000
vn 0.000000 0.000000 -1.000000
vn 0.000000 0.000000 -1.000000
vn 0.000000 0.000000 -1.000000
vn 0.000016 -0.000016 -1.000000
vn 1.000000 -0.000000 0.000000
vn 1.000000 -0.000000 0.000000
vn 1.000000 -0.000000 0.000000
vn 1.000000 -0.000000 0.000000
vn -0.000000 -1.000000 0.000000
vn -0.000000 -1.000000 0.000000
vn -0.000000 -1.000000 0.000000
vn -0.000000 -1.000000 0.000000
vn 0.000000 1.000000 0.000000
vn 0.000000 1.000000 0.000000
vn 0.000000 1.000000 0.000000
vn 0.000000 1.000000 0.000000
vn 0.000000 0.000000 1.000000
vn 0.000000 0.000000 1.000000
vn 0.000000 0.000000 1.000000
vn 0.000000 0.000000 1.000000
vn 0.000000 0.000000 1.000000
vn 0.000000 0.000000 1.000000
vn 0.000016 -0.000016 -1.000000
vn 0.000155 -0.000155 -1.000000
vn 0.000000 0.000000 -1.000000
vn 0.000000 0.000000 1.000000
vn 0.000000 0.000000 1.000000
vn 0.000000 0.000000 1.000000
vn 0.000000 0.000000 1.000000
vn 0.000000 0.000000 1.000000
vn 0.000000 0.000000 1.000000
vn -1.000000 0.000000 0.000000
vn -1.000000 0.000000 0.000000
vn -1.000000 0.000000 0.000000
vn 0.000155 -0.000155 -1.000000
vn 0.000016 -0.000016 -1.000000
vn 0.000671 -0.000671 -1.000000
vn 0.000000 1.000000 0.000000
vn 0.000000 1.000000 0.000000
vn 0.000000 1.000000 0.000000
vn 0.000000 1.000000 0.000000
vn 0.000000 1.000000 0.000000
vn 0.000000 1.000000 0.000000
vn 0.000000 1.000000 0.000000
vn -0.000336 0.000336 -1.000000
vn -0.000336 0.000336 -1.000000
vn -0.000336 0.000336 -1.000000
vn -0.000336 0.000336 -1.000000
vn -1.000000 0.000000 0.000000
vn -1.000000 0.000000 0.000000
vn -1.000000 0.000000 0.000000
vn -1.000000 0.000000 0.000000
vn 0.000000 1.000000 0.000000
vn 0.000000 1.000000 0.000000
vn 0.000000 1.000000 0.000000
vn 0.000000 1.000000 0.000000
vn 0.000000 1.000000 0.000000
vn 0.000000 1.000000 0.000000
vn 0.000000 1.000000 0.000000
vn 1.000000 -0.000000 0.000000
vn 1.000000 -0.000000 0.000000
vn 1.000000 -0.000000 0.000000
vn 1.000000 -0.000000 0.000000
vn -1.000000 0.000000 0.000000
vn -1.000000 0.000000 0.000000
vn -1.000000 0.000000 0.000000
s off
g Ground_Exit
usemtl initialShadingGroup1
f 14/1/1 3/2/2 1/3/3 13/4/4
f 15/5/5 5/6/6 3/2/7 4/7/8
f 6/8/9 5/6/10 16/9/11 17/10/12
f 2/11/13 1/12/14 6/8/15 7/13/16
f 3/2/17 5/14/18 6/15/19 1/3/20
f 10/16/21 9/17/22 8/18/23 4/7/24
f 14/1/25 4/7/26 3/2/27
f 1/3/28 2/19/29 13/4/30
f 17/10/31 7/13/32 6/8/33
f 11/20/34 13/4/35 2/19/36
f 4/7/37 14/1/38 10/16/39
f 8/21/40 15/5/41 4/7/42
f 7/13/43 17/10/44 12/22/45
f 18/23/46 13/4/47 17/10/48 16/9/49
f 16/9/50 15/5/51 18/23/52
f 9/17/53 18/23/54 15/5/55 8/21/56
f 17/10/57 13/4/58 11/20/59 12/22/60
f 7/24/61 12/22/62 11/20/63 2/19/64
f 13/4/65 18/23/66 14/1/67
f 10/16/68 14/1/69 18/23/70 9/17/71
f 15/5/72 16/9/73 5/6/74
