# This file uses centimeters as units for non-parametric coordinates.

mtllib Horizontal.mtl
g default
v 250.000000 -250.000000 250.000000
v 250.000000 250.000000 250.000000
v -250.000000 -250.000000 250.000000
v -250.000000 250.000000 250.000000
v -250.000000 -250.000000 -250.000000
v -250.000000 250.000000 -250.000000
v 250.000000 -250.000000 -250.000000
v 250.000000 250.000000 -250.000000
v 250.000000 250.000000 -99.999992
v -250.000000 250.000000 -100.000000
v -250.000000 250.000000 99.999992
v 250.000000 250.000000 100.000000
v 250.000000 100.000000 99.999992
v -250.000000 100.000000 100.000000
v -250.000000 100.000000 -99.999992
v 250.000000 100.000000 -100.000000
vt 0.373726 0.248726
vt 0.375000 0.000000
vt 0.625142 0.000142
vt 0.625028 0.250028
vt 0.550000 0.425000
vt 0.375000 0.500000
vt 0.550000 0.325000
vt 0.375000 0.750000
vt 0.625000 0.500000
vt 0.625000 0.750000
vt 0.375000 1.000000
vt 0.550000 0.825000
vt 0.550000 0.925000
vt 0.125000 0.250000
vt 0.125000 0.000000
vt 0.875000 0.250000
vt 0.800000 0.250000
vt 0.800000 0.000000
vt 0.875000 0.000000
vt 0.700000 0.250000
vt 0.700000 0.000000
vt 0.625000 1.000000
vt 0.625000 0.925000
vt 0.625000 0.325000
vt 0.625000 0.425000
vt 0.625000 0.825000
vn 0.000000 0.000000 1.000000
vn 0.000000 0.000000 1.000000
vn 0.000000 0.000000 1.000000
vn 0.000000 0.000000 1.000000
vn -1.000000 0.000000 0.000000
vn -1.000000 0.000000 0.000000
vn -1.000000 0.000000 0.000000
vn -1.000000 0.000000 0.000000
vn 0.000000 0.000000 -1.000000
vn 0.000000 0.000000 -1.000000
vn 0.000000 0.000000 -1.000000
vn 0.000000 0.000000 -1.000000
vn 1.000000 -0.000000 0.000000
vn 1.000000 -0.000000 0.000000
vn 1.000000 -0.000000 0.000000
vn 1.000000 -0.000000 0.000000
vn -0.000000 -1.000000 0.000000
vn -0.000000 -1.000000 0.000000
vn -0.000000 -1.000000 0.000000
vn -0.000000 -1.000000 0.000000
vn 1.000000 -0.000000 0.000000
vn 1.000000 -0.000000 0.000000
vn 1.000000 -0.000000 0.000000
vn 0.000000 1.000000 0.000000
vn 0.000000 1.000000 0.000000
vn 0.000000 1.000000 0.000000
vn 0.000000 1.000000 0.000000
vn -1.000000 0.000000 0.000000
vn -1.000000 0.000000 0.000000
vn -1.000000 0.000000 0.000000
vn -1.000000 0.000000 0.000000
vn -1.000000 0.000000 0.000000
vn -1.000000 0.000000 0.000000
vn 0.000000 1.000000 0.000000
vn 0.000000 1.000000 0.000000
vn 0.000000 1.000000 0.000000
vn 0.000000 1.000000 0.000000
vn 1.000000 -0.000000 0.000000
vn 1.000000 -0.000000 0.000000
vn 1.000000 -0.000000 0.000000
vn 1.000000 -0.000000 0.000000
vn 1.000000 -0.000000 0.000000
vn 1.000000 -0.000000 0.000000
vn -1.000000 0.000000 0.000000
vn -1.000000 0.000000 0.000000
vn -1.000000 0.000000 0.000000
vn -1.000000 0.000000 0.000000
vn -1.000000 0.000000 0.000000
vn -1.000000 0.000000 0.000000
vn 1.000000 -0.000000 0.000000
vn 1.000000 -0.000000 0.000000
vn 1.000000 -0.000000 0.000000
vn 0.000000 1.000000 0.000000
vn 0.000000 1.000000 0.000000
vn 0.000000 1.000000 0.000000
vn 0.000000 1.000000 0.000000
vn 0.000000 0.000000 1.000000
vn 0.000000 0.000000 1.000000
vn 0.000000 0.000000 1.000000
vn 0.000000 0.000000 1.000000
vn 0.000000 0.000000 -1.000000
vn 0.000000 0.000000 -1.000000
vn 0.000000 0.000000 -1.000000
vn 0.000000 0.000000 -1.000000
s off
g Horizontal
usemtl initialShadingGroup1
f 3/1/1 1/2/2 2/3/3 4/4/4
f 15/5/5 5/6/6 3/1/7 14/7/8
f 7/8/9 5/6/10 6/9/11 8/10/12
f 1/11/13 7/8/14 16/12/15 13/13/16
f 5/14/17 7/15/18 1/2/19 3/1/20
f 8/10/21 16/12/22 7/8/23
f 6/16/24 10/17/25 9/18/26 8/19/27
f 15/5/28 6/9/29 5/6/30
f 4/4/31 14/7/32 3/1/33
f 11/20/34 4/4/35 2/3/36 12/21/37
f 13/13/38 2/22/39 1/11/40
f 2/22/41 13/13/42 12/23/43
f 11/24/44 14/7/45 4/4/46
f 6/9/47 15/5/48 10/25/49
f 9/26/50 16/12/51 8/10/52
f 15/5/53 14/7/54 13/13/55 16/12/56
f 9/26/57 10/25/58 15/5/59 16/12/60
f 14/7/61 11/24/62 12/23/63 13/13/64
