# This file uses centimeters as units for non-parametric coordinates.

mtllib wandgedreht.mtl
g default
v -326.780665 -180.304351 1097.099819
v -326.780665 175.002183 1097.099819
v 169.916127 -180.304351 1096.118038
v 169.916127 175.002183 1096.118038
v 170.909871 -180.304351 1598.900142
v 170.909871 175.002183 1598.900142
v -325.786983 -180.304351 1599.882015
v -325.786983 175.002183 1599.882015
vt 0.375000 0.000000
vt 0.625000 0.000000
vt 0.375000 0.250000
vt 0.625000 0.250000
vt 0.375000 0.500000
vt 0.625000 0.500000
vt 0.375000 0.750000
vt 0.625000 0.750000
vt 0.375000 1.000000
vt 0.625000 1.000000
vt 0.875000 0.000000
vt 0.875000 0.250000
vt 0.125000 0.000000
vt 0.125000 0.250000
vn -0.001977 0.000000 -0.999998
vn -0.001977 0.000000 -0.999998
vn -0.001977 0.000000 -0.999998
vn -0.001977 0.000000 -0.999998
vn 0.999998 -0.000000 -0.001976
vn 0.999998 -0.000000 -0.001976
vn 0.999998 -0.000000 -0.001976
vn 0.999998 -0.000000 -0.001976
vn 0.001977 -0.000000 0.999998
vn 0.001977 -0.000000 0.999998
vn 0.001977 -0.000000 0.999998
vn 0.001977 -0.000000 0.999998
vn -0.999998 0.000000 0.001976
vn -0.999998 0.000000 0.001976
vn -0.999998 0.000000 0.001976
vn -0.999998 0.000000 0.001976
vn -0.000000 1.000000 0.000000
vn -0.000000 1.000000 0.000000
vn -0.000000 1.000000 0.000000
vn -0.000000 1.000000 0.000000
vn -0.000000 -1.000000 0.000000
vn -0.000000 -1.000000 0.000000
vn -0.000000 -1.000000 0.000000
vn -0.000000 -1.000000 0.000000
s off
g initialShadingGroup pCube2
f 1/1/1 2/2/2 4/4/3 3/3/4
f 3/3/5 4/4/6 6/6/7 5/5/8
f 5/5/9 6/6/10 8/8/11 7/7/12
f 7/7/13 8/8/14 2/10/15 1/9/16
f 2/2/17 8/11/18 6/12/19 4/4/20
f 7/13/21 1/1/22 3/3/23 5/14/24
