# This file uses centimeters as units for non-parametric coordinates.

mtllib Bush.mtl
g default
v 0.879634 -2.706561 -0.845775
v 7.047202 -2.103714 6.087276
v -0.549029 -0.831110 8.671596
v 9.139261 2.992149 -17.159009
v -4.728966 2.992149 -21.006310
v -15.850420 2.992149 -10.226419
v -15.850420 2.992149 7.063180
v 15.311194 2.992149 -1.581619
v 15.455908 12.516867 -26.786368
v -7.020962 12.679696 -33.236966
v -26.260304 7.766796 -17.763546
v -24.978239 12.516867 12.405960
v -4.050293 5.011738 33.011427
v 15.594434 12.523887 23.798668
v 25.717716 12.617898 -1.570063
v 14.097530 23.537027 -24.817028
v -7.335603 25.827664 -35.137192
v -24.950948 24.292666 -15.553529
v -29.880679 24.937586 10.407411
v -6.983248 24.289791 29.848302
v 17.706604 26.420325 26.245349
v 30.622129 24.679302 -3.207272
v 12.147893 43.385475 -10.598573
v -3.618419 34.530872 -20.007152
v -15.849184 33.810916 7.059620
v 1.506332 34.781399 18.388484
v 16.978624 38.408628 4.150953
v 1.016497 41.049933 -1.105488
vt 0.580948 0.017959
vt 0.740443 0.102393
vt 0.817466 0.024890
vt 0.007813 0.244329
vt 0.807986 0.192103
vt 0.213741 0.137438
vt 0.166607 0.220127
vt 0.339874 0.145688
vt 0.323429 0.226827
vt 0.443971 0.210290
vt 0.533357 0.239297
vt 0.622880 0.136826
vt 0.659527 0.231839
vt 0.017593 0.381521
vt 0.834904 0.276166
vt 0.169147 0.341922
vt 0.306803 0.317233
vt 0.434518 0.329798
vt 0.546113 0.341621
vt 0.670992 0.330904
vt 0.153174 0.516936
vt 0.761471 0.455391
vt 0.332034 0.427512
vt 0.466327 0.427186
vt 0.618003 0.482344
vt 0.769537 0.556449
vt 0.446616 0.052784
vt 0.533025 0.080862
vt 0.924185 0.410770
vt 0.338651 0.007813
vt 0.102621 0.097346
vt 0.992188 0.246285
vt 0.946230 0.125197
vt 0.388937 0.545108
vn 0.175300 -0.754965 -0.631900
vn 0.175300 -0.754965 -0.631900
vn 0.175300 -0.754965 -0.631900
vn 0.175692 -0.755408 -0.631261
vn 0.175692 -0.755408 -0.631261
vn 0.175692 -0.755408 -0.631261
vn -0.245651 -0.935642 -0.253434
vn -0.245651 -0.935642 -0.253434
vn -0.245651 -0.935642 -0.253434
vn -0.258781 -0.780206 -0.569484
vn -0.258781 -0.780206 -0.569484
vn -0.258781 -0.780206 -0.569484
vn -0.721990 -0.691904 0.000000
vn -0.721990 -0.691904 0.000000
vn -0.721990 -0.691904 0.000000
vn -0.502516 -0.850512 0.155264
vn -0.502516 -0.850512 0.155264
vn -0.502516 -0.850512 0.155264
vn -0.236408 -0.637758 0.733059
vn -0.236408 -0.637758 0.733059
vn -0.236408 -0.637758 0.733059
vn -0.457287 -0.877443 0.144852
vn -0.457287 -0.877443 0.144852
vn -0.457287 -0.877443 0.144852
vn 0.076653 -0.786616 0.612666
vn 0.076653 -0.786616 0.612666
vn 0.076653 -0.786616 0.612666
vn 0.451532 -0.850688 0.269163
vn 0.451532 -0.850688 0.269163
vn 0.451532 -0.850688 0.269163
vn 0.659586 -0.713371 0.236744
vn 0.659586 -0.713371 0.236744
vn 0.659586 -0.713371 0.236744
vn 0.661469 -0.702961 0.261351
vn 0.661469 -0.702961 0.261351
vn 0.661469 -0.702961 0.261351
vn 0.655860 -0.708746 -0.259859
vn 0.655860 -0.708746 -0.259859
vn 0.655860 -0.708746 -0.259859
vn 0.658317 -0.704522 -0.265080
vn 0.658317 -0.704522 -0.265080
vn 0.658317 -0.704522 -0.265080
vn 0.271537 0.201642 -0.941068
vn 0.271537 0.201642 -0.941068
vn 0.271537 0.201642 -0.941068
vn 0.420267 -0.119935 -0.899439
vn 0.420267 -0.119935 -0.899439
vn 0.420267 -0.119935 -0.899439
vn -0.642678 0.151356 -0.751037
vn -0.642678 0.151356 -0.751037
vn -0.642678 0.151356 -0.751037
vn -0.734138 -0.114302 -0.669311
vn -0.734138 -0.114302 -0.669311
vn -0.734138 -0.114302 -0.669311
vn -0.996724 0.074883 0.030566
vn -0.996724 0.074883 0.030566
vn -0.996724 0.074883 0.030566
vn -0.908500 -0.384802 -0.162956
vn -0.908500 -0.384802 -0.162956
vn -0.908500 -0.384802 -0.162956
vn -0.699587 0.010795 0.714466
vn -0.699587 0.010795 0.714466
vn -0.699587 0.010795 0.714466
vn -0.643673 -0.132785 0.753693
vn -0.643673 -0.132785 0.753693
vn -0.643673 -0.132785 0.753693
vn 0.350900 0.203364 0.914064
vn 0.350900 0.203364 0.914063
vn 0.350900 0.203364 0.914063
vn 0.158053 -0.194470 0.968091
vn 0.158053 -0.194470 0.968091
vn 0.158053 -0.194470 0.968091
vn 0.909876 -0.202088 0.362333
vn 0.909876 -0.202088 0.362333
vn 0.909876 -0.202088 0.362333
vn 0.867394 -0.298672 0.398024
vn 0.867394 -0.298672 0.398024
vn 0.867394 -0.298672 0.398024
vn 0.911083 0.178686 -0.371482
vn 0.911083 0.178686 -0.371482
vn 0.911083 0.178686 -0.371482
vn 0.745084 -0.377596 -0.549793
vn 0.745084 -0.377596 -0.549793
vn 0.745084 -0.377596 -0.549793
vn 0.338416 0.777345 -0.530292
vn 0.338416 0.777345 -0.530292
vn 0.338416 0.777345 -0.530292
vn 0.146908 0.585527 -0.797230
vn 0.146908 0.585527 -0.797230
vn 0.146908 0.585527 -0.797230
vn -0.463706 0.812449 -0.353418
vn -0.463706 0.812449 -0.353418
vn -0.463706 0.812449 -0.353418
vn -0.456164 0.870884 -0.182964
vn -0.456164 0.870884 -0.182964
vn -0.456164 0.870884 -0.182964
vn -0.551442 0.824764 -0.125203
vn -0.551442 0.824764 -0.125203
vn -0.551442 0.824764 -0.125203
vn -0.384575 0.788943 0.479240
vn -0.384575 0.788943 0.479240
vn -0.384575 0.788943 0.479240
vn -0.354835 0.805515 0.474593
vn -0.354835 0.805515 0.474593
vn -0.354835 0.805515 0.474593
vn 0.038335 0.722730 0.690067
vn 0.038335 0.722730 0.690067
vn 0.038335 0.722730 0.690067
vn 0.221134 0.860226 0.459468
vn 0.221134 0.860226 0.459468
vn 0.221134 0.860226 0.459468
vn 0.752120 0.589323 0.294982
vn 0.752120 0.589323 0.294982
vn 0.752120 0.589323 0.294982
vn 0.691533 0.464317 -0.553346
vn 0.691533 0.464317 -0.553346
vn 0.691533 0.464317 -0.553346
vn 0.710568 0.703612 0.004692
vn 0.710569 0.703612 0.004692
vn 0.710569 0.703612 0.004692
vn 0.080982 -0.953010 -0.291913
vn 0.080982 -0.953010 -0.291913
vn 0.080982 -0.953010 -0.291913
vn -0.206115 -0.955143 -0.212647
vn -0.206115 -0.955143 -0.212647
vn -0.206115 -0.955143 -0.212647
vn -0.322435 -0.946592 0.000000
vn -0.322435 -0.946592 0.000000
vn -0.322435 -0.946592 0.000000
vn -0.254484 -0.955364 0.150060
vn -0.254484 -0.955364 0.150060
vn -0.254484 -0.955364 0.150060
vn 0.347281 -0.909147 -0.229885
vn 0.347281 -0.909147 -0.229885
vn 0.347281 -0.909147 -0.229885
vn 0.357328 -0.923186 -0.141577
vn 0.357328 -0.923186 -0.141577
vn 0.357328 -0.923186 -0.141577
vn -0.375407 0.900714 -0.218596
vn -0.375407 0.900714 -0.218596
vn -0.375407 0.900714 -0.218596
vn -0.462121 0.867144 -0.185755
vn -0.462121 0.867144 -0.185755
vn -0.462121 0.867144 -0.185755
vn -0.248697 0.920242 0.302165
vn -0.248697 0.920242 0.302165
vn -0.248697 0.920242 0.302165
vn 0.057125 0.950854 0.304324
vn 0.057125 0.950854 0.304324
vn 0.057125 0.950854 0.304324
vn 0.057975 0.951519 0.302078
vn 0.057975 0.951519 0.302078
vn 0.057975 0.951519 0.302078
vn -0.103642 -0.978685 0.177298
vn -0.103642 -0.978685 0.177298
vn -0.103642 -0.978685 0.177298
s off
g pCylinder9
usemtl initialShadingGroup
f 4/2/1 5/3/2 9/5/3
f 9/5/4 5/3/5 10/33/6
f 6/6/7 11/7/8 5/31/9
f 5/31/10 11/7/11 10/4/12
f 7/8/13 12/9/14 6/6/15
f 6/6/16 12/9/17 11/7/18
f 7/8/19 3/27/20 12/9/21
f 12/9/22 3/27/23 13/10/24
f 2/28/25 14/11/26 3/27/27
f 3/27/28 14/11/29 13/10/30
f 8/12/31 15/13/32 2/28/33
f 2/28/34 15/13/35 14/11/36
f 8/12/37 4/2/38 15/13/39
f 15/13/40 4/2/41 9/5/42
f 9/5/43 10/33/44 16/15/45
f 16/15/46 10/33/47 17/32/48
f 11/7/49 18/16/50 10/4/51
f 10/4/52 18/16/53 17/14/54
f 11/7/55 12/9/56 18/16/57
f 18/16/58 12/9/59 19/17/60
f 13/10/61 20/18/62 12/9/63
f 12/9/64 20/18/65 19/17/66
f 13/10/67 14/11/68 20/18/69
f 20/18/70 14/11/71 21/19/72
f 14/11/73 15/13/74 21/19/75
f 21/19/76 15/13/77 22/20/78
f 9/5/79 16/15/80 15/13/81
f 15/13/82 16/15/83 22/20/84
f 17/32/85 24/29/86 16/15/87
f 16/15/88 24/29/89 23/22/90
f 17/14/91 18/16/92 24/21/93
f 24/21/94 18/16/95 25/23/96
f 19/17/97 25/23/98 18/16/99
f 19/17/100 20/18/101 25/23/102
f 25/23/103 20/18/104 26/24/105
f 20/18/106 21/19/107 26/24/108
f 26/24/109 21/19/110 27/25/111
f 22/20/112 27/25/113 21/19/114
f 16/15/115 23/22/116 22/20/117
f 22/20/118 23/22/119 27/25/120
f 5/3/121 4/2/122 1/1/123
f 6/6/124 5/31/125 1/30/126
f 7/8/127 6/6/128 1/30/129
f 3/27/130 7/8/131 1/30/132
f 8/12/133 2/28/134 1/1/135
f 4/2/136 8/12/137 1/1/138
f 23/22/139 24/29/140 28/26/141
f 28/34/142 24/21/143 25/23/144
f 25/23/145 26/24/146 28/34/147
f 28/34/148 26/24/149 27/25/150
f 27/25/151 23/22/152 28/26/153
f 2/28/154 3/27/155 1/1/156
