# This file uses centimeters as units for non-parametric coordinates.

mtllib Semen.mtl
g default
v -0.049692 0.104076 0.078593
v 0.049692 0.104076 0.078593
v 0.109781 0.000000 0.078593
v 0.049692 -0.104076 0.078593
v -0.049692 -0.104076 0.078593
v -0.109781 -0.000000 0.078593
v -0.039297 0.068064 -0.078593
v 0.039296 0.068064 -0.078593
v 0.078593 0.000000 -0.078593
v 0.039297 -0.068064 -0.078593
v -0.039296 -0.068064 -0.078593
v -0.078593 0.000000 -0.078593
v -0.019934 0.034526 -0.145508
v 0.019934 0.034526 -0.145508
v 0.039868 0.000000 -0.145508
v 0.019934 -0.034526 -0.145508
v -0.019934 -0.034526 -0.145508
v -0.039868 0.000000 -0.145508
v -0.047810 0.100745 0.014443
v 0.047810 0.100745 0.014443
v 0.105975 0.000000 0.014443
v 0.047810 -0.100745 0.014443
v -0.047810 -0.100745 0.014443
v -0.105975 -0.000000 0.014443
v -0.054099 0.000000 0.124122
v -0.024488 0.051288 0.124122
v -0.024488 -0.051288 0.124122
v 0.024488 -0.051288 0.124122
v 0.054099 0.000000 0.124122
v 0.024488 0.051288 0.124122
vt 0.823295 0.299625
vt 0.818066 0.341020
vt 0.955853 0.458817
vt 0.352116 0.007813
vt 0.643680 0.289037
vt 0.682412 0.153208
vt 0.361915 0.431570
vt 0.565377 0.102424
vt 0.298612 0.351204
vt 0.171862 0.513995
vt 0.242678 0.178044
vt 0.376555 0.133028
vt 0.007813 0.154583
vt 0.589666 0.674331
vt 0.527285 0.605027
vt 0.491313 0.469305
vt 0.642335 0.512322
vt 0.943229 0.092140
vt 0.859199 0.573895
vt 0.780122 0.042950
vt 0.713601 0.038724
vt 0.088621 0.388872
vt 0.522766 0.151101
vt 0.488570 0.093886
vt 0.823282 0.198442
vt 0.979694 0.203007
vt 0.620835 0.378904
vt 0.459015 0.460020
vt 0.410636 0.608833
vt 0.155677 0.210120
vt 0.951728 0.630979
vt 0.046627 0.342217
vt 0.007813 0.461608
vt 0.826241 0.627317
vt 0.060997 0.239917
vt 0.821904 0.007813
vt 0.992188 0.012782
vt 0.591764 0.473809
vt 0.677293 0.523363
vt 0.781423 0.447507
vt 0.551126 0.531693
vt 0.442619 0.349447
vt 0.068604 0.338472
vt 0.190100 0.381321
vt 0.866150 0.089890
vt 0.079008 0.046564
vt 0.315369 0.574744
vt 0.433995 0.247093
vt 0.471682 0.243748
vt 0.210120 0.396315
vt 0.973781 0.304017
vt 0.808950 0.170479
vt 0.182578 0.010646
vt 0.832163 0.455208
vt 0.478872 0.029009
vt 0.069214 0.448567
vt 0.654642 0.009968
vt 0.921942 0.575726
vn -0.000000 0.976265 -0.216580
vn -0.000000 0.977092 -0.212817
vn -0.000000 0.943480 -0.331429
vn -0.000000 0.943480 -0.331429
vn 0.854979 0.493622 -0.159213
vn 0.855346 0.493834 -0.156559
vn 0.839194 0.484509 -0.246989
vn 0.839195 0.484509 -0.246988
vn 0.854825 -0.493533 -0.160307
vn 0.839195 -0.484509 -0.246989
vn 0.855497 -0.493921 -0.155457
vn 0.839195 -0.484509 -0.246989
vn 0.000000 -0.976265 -0.216580
vn 0.000000 -0.977092 -0.212817
vn 0.000000 -0.943480 -0.331429
vn 0.000000 -0.943480 -0.331429
vn -0.854979 -0.493622 -0.159213
vn -0.855346 -0.493834 -0.156559
vn -0.839195 -0.484509 -0.246988
vn -0.839195 -0.484509 -0.246989
vn -0.854825 0.493533 -0.160307
vn -0.839195 0.484509 -0.246989
vn -0.855497 0.493921 -0.155457
vn -0.839195 0.484509 -0.246989
vn -0.000000 -0.000000 1.000000
vn -0.000000 0.000000 1.000000
vn -0.000000 0.000000 1.000000
vn -0.000000 0.000000 1.000000
vn -0.000000 -0.000000 1.000000
vn -0.000000 -0.000000 1.000000
vn 0.000000 0.000000 -1.000000
vn 0.000000 0.000000 -1.000000
vn 0.000000 0.000000 -1.000000
vn 0.000000 0.000000 -1.000000
vn 0.000000 0.000000 -1.000000
vn 0.000000 0.000000 -1.000000
vn -0.000000 0.894001 -0.448065
vn -0.000000 0.894001 -0.448065
vn -0.000000 0.894001 -0.448065
vn -0.000000 0.894001 -0.448065
vn 0.774228 0.447001 -0.448065
vn 0.774228 0.447001 -0.448065
vn 0.774228 0.447001 -0.448065
vn 0.774228 0.447000 -0.448065
vn 0.774228 -0.447001 -0.448065
vn 0.774228 -0.447001 -0.448065
vn 0.774228 -0.447001 -0.448065
vn 0.774228 -0.447000 -0.448064
vn 0.000000 -0.894001 -0.448065
vn 0.000000 -0.894001 -0.448065
vn 0.000000 -0.894001 -0.448065
vn 0.000000 -0.894001 -0.448065
vn -0.774228 -0.447001 -0.448065
vn -0.774228 -0.447001 -0.448065
vn -0.774228 -0.447001 -0.448065
vn -0.774228 -0.447000 -0.448065
vn -0.774228 0.447001 -0.448065
vn -0.774228 0.447001 -0.448065
vn -0.774228 0.447000 -0.448065
vn -0.774228 0.447000 -0.448065
vn -0.000000 0.950692 0.310138
vn -0.000000 0.931232 0.364427
vn 0.823898 0.475678 0.308095
vn 0.833682 0.481327 0.270736
vn 0.834779 -0.481960 0.266194
vn 0.822571 -0.474912 0.312786
vn -0.000000 -0.950692 0.310138
vn -0.000000 -0.931232 0.364427
vn -0.823898 -0.475678 0.308095
vn -0.833682 -0.481327 0.270736
vn -0.834779 0.481960 0.266194
vn -0.822571 0.474912 0.312786
vn -0.594539 0.343257 0.727116
vn -0.594539 0.343257 0.727116
vn -0.594539 -0.343258 0.727116
vn -0.594539 -0.343257 0.727116
vn -0.000000 -0.653121 0.757254
vn -0.000000 -0.653121 0.757254
vn 0.594540 -0.343257 0.727116
vn 0.594539 -0.343258 0.727116
vn 0.594539 0.343258 0.727116
vn 0.594539 0.343258 0.727116
vn -0.000000 0.653121 0.757254
vn -0.000000 0.653121 0.757254
s 1
g Ant_Worker2:pCylinder1
usemtl initialShadingGroup
f 19/1/1 20/51/2 7/54/3
f 7/54/3 20/51/2 8/3/4
s 2
f 20/2/5 21/5/6 8/52/7
f 8/52/7 21/5/6 9/6/8
s 3
f 22/49/9 10/8/10 21/5/11
f 21/5/11 10/8/10 9/6/12
s 4
f 22/7/13 23/47/14 10/50/15
f 10/50/15 23/47/14 11/10/16
s 5
f 23/9/17 24/11/18 11/48/19
f 11/48/19 24/11/18 12/12/20
s 6
f 19/53/21 7/4/22 24/11/23
f 24/11/23 7/4/22 12/12/24
s 7
f 26/45/25 25/36/26 30/18/27
f 30/18/27 25/36/26 29/37/28
f 25/14/26 27/15/29 29/17/28
f 27/15/29 28/41/30 29/17/28
s 8
f 13/19/31 14/58/32 18/34/33
f 14/58/32 15/31/34 18/34/33
f 15/32/34 16/22/35 18/33/33
f 16/22/35 17/56/36 18/33/33
s 9
f 7/54/37 8/3/38 13/19/39
f 13/19/39 8/3/38 14/58/40
s 10
f 8/52/41 9/6/42 14/20/43
f 14/20/43 9/6/42 15/21/44
s 11
f 9/6/45 10/8/46 15/21/47
f 15/21/47 10/8/46 16/57/48
s 12
f 10/50/49 11/10/50 16/22/51
f 16/22/51 11/10/50 17/56/52
s 13
f 11/48/53 12/12/54 17/23/55
f 17/23/55 12/12/54 18/24/56
s 14
f 12/12/57 7/4/58 18/24/59
f 18/24/59 7/4/58 13/55/60
s 1
f 1/25/61 2/26/62 19/1/1
f 19/1/1 2/26/62 20/51/2
s 2
f 2/40/63 3/27/64 20/2/5
f 20/2/5 3/27/64 21/5/6
s 3
f 3/27/65 4/42/66 21/5/11
f 21/5/11 4/42/66 22/49/9
s 4
f 4/28/67 5/29/68 22/7/13
f 22/7/13 5/29/68 23/47/14
s 5
f 5/44/69 6/30/70 23/9/17
f 23/9/17 6/30/70 24/11/18
s 6
f 6/30/71 1/46/72 24/11/23
f 24/11/23 1/46/72 19/53/21
f 1/46/72 6/30/71 26/13/73
f 26/13/73 6/30/71 25/35/74
s 5
f 5/44/69 27/43/75 6/30/70
f 6/30/70 27/43/75 25/35/76
s 4
f 5/29/68 4/28/67 27/15/77
f 27/15/77 4/28/67 28/41/78
s 3
f 4/42/66 3/27/65 28/16/79
f 28/16/79 3/27/65 29/38/80
s 2
f 2/40/63 30/39/81 3/27/64
f 3/27/64 30/39/81 29/38/82
s 1
f 2/26/62 1/25/61 30/18/83
f 30/18/83 1/25/61 26/45/84
