# This file uses centimeters as units for non-parametric coordinates.

mtllib Stone.mtl
g default
v 0.555754 1.179205 -0.914187
v -10.938043 0.242863 4.919327
v -10.515172 3.679310 -7.481543
v 8.026575 3.300887 -12.449802
v -2.202323 4.179198 -15.004232
v -1.124045 1.362922 13.904252
v 8.475090 2.865865 11.253640
v 13.156032 2.107701 -0.983250
v 11.965492 8.868665 -22.197202
v -3.847121 11.152092 -23.729317
v -18.642758 7.296920 -13.474383
v -21.113526 10.424132 10.957791
v 0.954310 8.403796 24.094188
v 12.542140 10.935242 17.585735
v 20.596323 10.650111 -1.045593
v 12.643029 19.362958 -20.632466
v -3.817477 20.164478 -24.094188
v -16.173161 18.106859 -10.993561
v -23.461776 18.727630 11.581171
v -2.287869 19.196539 23.148267
v 12.825892 20.189736 17.621865
v 23.461776 18.097102 -1.520435
v 10.041899 24.698786 -10.932194
v -1.246549 25.204275 -13.661102
v -7.398483 25.485684 -6.054821
v -11.516634 30.065923 1.655227
v -3.139055 30.282680 15.884479
v 8.751499 28.141030 10.914152
v 14.121907 27.849834 -0.300240
v 0.489395 30.155576 -0.407661
vt 0.744219 0.549670
vt 0.443146 0.427182
vt 0.576148 0.460501
vt 0.805737 0.419350
vt 0.694879 0.422742
vt 0.693797 0.317350
vt 0.803530 0.326971
vt 0.581837 0.352538
vt 0.455926 0.299244
vt 0.328871 0.419975
vt 0.289405 0.332584
vt 0.240052 0.440572
vt 0.198271 0.337478
vt 0.169946 0.517952
vt 0.992188 0.331264
vt 0.695385 0.238070
vt 0.813531 0.231706
vt 0.579301 0.225333
vt 0.453421 0.215072
vt 0.296562 0.240560
vt 0.176766 0.249999
vt 0.990692 0.220500
vt 0.691888 0.137940
vt 0.811961 0.137391
vt 0.597730 0.106265
vt 0.473465 0.048653
vt 0.313386 0.127199
vt 0.193176 0.149366
vt 0.882741 0.063612
vt 0.266434 0.008077
vt 0.371819 0.547530
vt 0.906602 0.466238
vt 0.043905 0.411032
vt 0.076093 0.126797
vt 0.007813 0.307023
vt 0.681241 0.007813
vn 0.045138 -0.875188 -0.481672
vn 0.045138 -0.875188 -0.481672
vn 0.045138 -0.875188 -0.481672
vn -0.053548 -0.784960 -0.617229
vn -0.053548 -0.784959 -0.617229
vn -0.053548 -0.784960 -0.617229
vn -0.204219 -0.935649 -0.287845
vn -0.204219 -0.935649 -0.287845
vn -0.204220 -0.935649 -0.287845
vn -0.203205 -0.783209 -0.587615
vn -0.203205 -0.783209 -0.587615
vn -0.203205 -0.783209 -0.587615
vn -0.749819 -0.630591 -0.200313
vn -0.749819 -0.630591 -0.200313
vn -0.749819 -0.630591 -0.200313
vn -0.447611 -0.891574 0.068852
vn -0.447610 -0.891574 0.068852
vn -0.447611 -0.891574 0.068852
vn -0.412019 -0.732889 0.541400
vn -0.412019 -0.732889 0.541400
vn -0.412019 -0.732889 0.541400
vn -0.406758 -0.710674 0.574013
vn -0.406758 -0.710674 0.574013
vn -0.406758 -0.710674 0.574013
vn 0.268737 -0.817210 0.509851
vn 0.268737 -0.817210 0.509851
vn 0.268737 -0.817210 0.509851
vn 0.466499 -0.679487 0.566283
vn 0.466499 -0.679487 0.566283
vn 0.466499 -0.679487 0.566283
vn 0.717324 -0.622495 0.312964
vn 0.717324 -0.622495 0.312964
vn 0.717324 -0.622495 0.312964
vn 0.720418 -0.614865 0.320841
vn 0.720418 -0.614865 0.320841
vn 0.720418 -0.614865 0.320841
vn 0.697525 -0.610272 -0.375536
vn 0.697525 -0.610272 -0.375536
vn 0.697525 -0.610272 -0.375536
vn 0.616907 -0.764413 -0.187346
vn 0.616907 -0.764413 -0.187346
vn 0.616907 -0.764413 -0.187346
vn 0.115396 0.139196 -0.983518
vn 0.115396 0.139196 -0.983518
vn 0.115396 0.139196 -0.983518
vn 0.203757 -0.040273 -0.978193
vn 0.203757 -0.040273 -0.978193
vn 0.203757 -0.040273 -0.978193
vn -0.594893 0.306442 -0.743099
vn -0.594893 0.306442 -0.743099
vn -0.594893 0.306442 -0.743099
vn -0.725253 -0.025464 -0.688012
vn -0.725252 -0.025464 -0.688012
vn -0.725253 -0.025464 -0.688012
vn -0.959913 0.248886 -0.128930
vn -0.959913 0.248886 -0.128930
vn -0.959913 0.248886 -0.128930
vn -0.925758 -0.239860 -0.292300
vn -0.925758 -0.239860 -0.292300
vn -0.925758 -0.239860 -0.292300
vn -0.515264 -0.080004 0.853289
vn -0.515264 -0.080004 0.853289
vn -0.515264 -0.080004 0.853289
vn -0.466691 -0.196716 0.862266
vn -0.466691 -0.196715 0.862266
vn -0.466691 -0.196715 0.862266
vn 0.443612 0.209632 0.871357
vn 0.443612 0.209632 0.871357
vn 0.443612 0.209632 0.871357
vn 0.344206 -0.014219 0.938787
vn 0.344206 -0.014219 0.938787
vn 0.344206 -0.014219 0.938787
vn 0.917334 -0.029674 0.397010
vn 0.917334 -0.029674 0.397010
vn 0.917334 -0.029674 0.397010
vn 0.824040 -0.285886 0.489108
vn 0.824040 -0.285886 0.489108
vn 0.824040 -0.285886 0.489108
vn 0.925983 -0.003490 -0.377550
vn 0.925983 -0.003490 -0.377550
vn 0.925983 -0.003490 -0.377550
vn 0.808043 -0.341523 -0.480029
vn 0.808043 -0.341523 -0.480029
vn 0.808043 -0.341523 -0.480029
vn 0.139133 0.877825 -0.458328
vn 0.139133 0.877825 -0.458328
vn 0.139133 0.877825 -0.458328
vn 0.147366 0.882780 -0.446074
vn 0.147366 0.882780 -0.446074
vn 0.147366 0.882780 -0.446074
vn -0.452793 0.841439 -0.294888
vn -0.452793 0.841439 -0.294888
vn -0.452793 0.841439 -0.294888
vn -0.451142 0.800526 -0.394499
vn -0.451142 0.800526 -0.394499
vn -0.451142 0.800526 -0.394499
vn -0.770445 0.579956 -0.264698
vn -0.770445 0.579956 -0.264698
vn -0.770445 0.579956 -0.264698
vn -0.290698 0.746385 -0.598669
vn -0.290698 0.746385 -0.598669
vn -0.290698 0.746385 -0.598669
vn -0.430875 0.471189 0.769628
vn -0.430875 0.471189 0.769628
vn -0.430875 0.471189 0.769628
vn -0.518711 0.803116 0.293161
vn -0.518711 0.803116 0.293161
vn -0.518711 0.803116 0.293161
vn 0.256558 0.543412 0.799301
vn 0.256558 0.543412 0.799301
vn 0.256558 0.543412 0.799301
vn 0.378481 0.702438 0.602772
vn 0.378481 0.702438 0.602772
vn 0.378481 0.702438 0.602772
vn 0.703623 0.633588 0.321685
vn 0.703623 0.633588 0.321685
vn 0.703623 0.633588 0.321685
vn 0.705037 0.632253 0.321215
vn 0.705037 0.632253 0.321215
vn 0.705037 0.632253 0.321215
vn 0.571741 0.773897 -0.272388
vn 0.571741 0.773897 -0.272388
vn 0.571741 0.773897 -0.272388
vn 0.623610 0.651301 -0.432340
vn 0.623610 0.651301 -0.432340
vn 0.623610 0.651301 -0.432340
vn -0.033648 -0.978844 -0.201825
vn -0.033648 -0.978844 -0.201825
vn -0.033648 -0.978844 -0.201825
vn -0.109931 -0.976313 -0.186354
vn -0.109931 -0.976313 -0.186354
vn -0.109931 -0.976313 -0.186354
vn 0.092689 -0.995433 0.022848
vn 0.092689 -0.995433 0.022848
vn 0.092689 -0.995433 0.022848
vn 0.162880 -0.986169 0.030690
vn 0.162880 -0.986169 0.030690
vn 0.162880 -0.986169 0.030690
vn 0.073682 -0.993237 0.089724
vn 0.073682 -0.993237 0.089724
vn 0.073682 -0.993237 0.089724
vn 0.072079 -0.988210 -0.135075
vn 0.072079 -0.988210 -0.135075
vn 0.072079 -0.988210 -0.135075
vn 0.128809 0.923312 -0.361806
vn 0.128809 0.923312 -0.361806
vn 0.128809 0.923312 -0.361806
vn -0.322287 0.899845 -0.293956
vn -0.322287 0.899845 -0.293956
vn -0.322287 0.899845 -0.293956
vn -0.100224 0.830987 -0.547189
vn -0.100224 0.830987 -0.547189
vn -0.100224 0.830987 -0.547189
vn -0.009157 0.999910 -0.009840
vn -0.009157 0.999910 -0.009840
vn -0.009157 0.999910 -0.009840
vn 0.191285 0.980912 0.034949
vn 0.191285 0.980912 0.034949
vn 0.191285 0.980912 0.034949
vn 0.166110 0.984629 0.053979
vn 0.166110 0.984629 0.053979
vn 0.166110 0.984629 0.053979
vn 0.159628 0.928118 -0.336327
vn 0.159628 0.928118 -0.336327
vn 0.159628 0.928118 -0.336327
vn -0.057907 -0.961556 -0.268435
vn -0.057907 -0.961556 -0.268435
vn -0.057907 -0.961556 -0.268435
s off
g pCylinder6
usemtl initialShadingGroup
f 4/4/1 5/5/2 9/7/3
f 9/7/4 5/5/5 10/6/6
f 3/3/7 11/8/8 5/5/9
f 5/5/10 11/8/11 10/6/12
f 2/2/13 12/9/14 3/3/15
f 3/3/16 12/9/17 11/8/18
f 2/2/19 6/10/20 12/9/21
f 12/9/22 6/10/23 13/11/24
f 6/10/25 7/12/26 13/11/27
f 13/11/28 7/12/29 14/13/30
f 8/14/31 15/33/32 7/12/33
f 7/12/34 15/33/35 14/13/36
f 8/32/37 4/4/38 15/15/39
f 15/15/40 4/4/41 9/7/42
f 9/7/43 10/6/44 16/17/45
f 16/17/46 10/6/47 17/16/48
f 11/8/49 18/18/50 10/6/51
f 10/6/52 18/18/53 17/16/54
f 11/8/55 12/9/56 18/18/57
f 18/18/58 12/9/59 19/19/60
f 13/11/61 20/20/62 12/9/63
f 12/9/64 20/20/65 19/19/66
f 13/11/67 14/13/68 20/20/69
f 20/20/70 14/13/71 21/21/72
f 14/13/73 15/33/74 21/21/75
f 21/21/76 15/33/77 22/35/78
f 9/7/79 16/17/80 15/15/81
f 15/15/82 16/17/83 22/22/84
f 17/16/85 24/23/86 16/17/87
f 16/17/88 24/23/89 23/24/90
f 17/16/91 18/18/92 24/23/93
f 24/23/94 18/18/95 25/25/96
f 19/19/97 26/26/98 18/18/99
f 18/18/100 26/26/101 25/25/102
f 20/20/103 27/27/104 19/19/105
f 19/19/106 27/27/107 26/26/108
f 20/20/109 21/21/110 27/27/111
f 27/27/112 21/21/113 28/28/114
f 22/35/115 29/34/116 21/21/117
f 21/21/118 29/34/119 28/28/120
f 16/17/121 23/24/122 22/22/123
f 22/22/124 23/24/125 29/29/126
f 5/5/127 4/4/128 1/1/129
f 3/3/130 5/5/131 1/1/132
f 6/10/133 2/2/134 1/31/135
f 7/12/136 6/10/137 1/31/138
f 8/14/139 7/12/140 1/31/141
f 4/4/142 8/32/143 1/1/144
f 23/24/145 24/23/146 30/36/147
f 24/23/148 25/25/149 30/36/150
f 25/25/151 26/26/152 30/36/153
f 26/26/154 27/27/155 30/30/156
f 27/27/157 28/28/158 30/30/159
f 28/28/160 29/34/161 30/30/162
f 29/29/163 23/24/164 30/36/165
f 1/31/166 2/2/167 3/3/168
