# This file uses centimeters as units for non-parametric coordinates.

mtllib Tree_1.mtl
g default
v -6.752870 -4.658733 -13.473070
v 5.247232 -4.658733 -6.435899
v -6.752872 -4.658733 -0.447868
v 12.222953 36.045927 -3.872593
v -4.497162 44.020887 -16.786087
v -6.746614 36.063988 0.672526
v 1.925306 90.565352 -20.640389
v 18.710107 52.632236 3.802983
v 4.549213 47.423105 -3.952366
v 11.787094 59.743007 9.367871
v 2.472469 54.378915 1.381809
v 14.404097 91.785086 -6.612812
v -0.965286 94.359934 -1.383982
v 35.555560 57.667995 22.388391
v 17.810579 63.472188 0.464501
v 34.656033 68.507948 19.049907
v 28.632547 64.778767 27.953282
v 8.862261 60.180518 -4.436131
v 65.346972 81.311547 23.601382
v 46.808074 80.496116 33.133602
v 46.911433 84.935546 12.505768
v 77.814998 85.763492 4.462992
v 60.882860 85.842923 -0.133988
v 62.550625 81.407200 48.203551
v 77.873201 85.726222 42.665669
v 85.375220 85.842923 23.606168
v 84.729699 93.664021 -12.249937
v 58.127629 97.483682 -14.806215
v 33.237879 91.019897 2.424336
v 36.073586 95.940596 40.473878
v 66.191285 92.917963 65.595677
v 85.552076 97.483682 54.410508
v 99.213964 96.644710 23.332204
v 85.266150 110.510066 -8.978892
v 58.127629 111.872462 -14.806215
v 36.553645 109.369967 6.094647
v 35.996334 107.294221 40.073902
v 60.931942 110.284632 63.262576
v 85.552076 111.872462 54.410508
v 103.332787 108.661557 22.557662
v 80.304365 118.333796 7.967543
v 60.911189 123.454832 -0.107351
v 48.150468 121.775831 13.546069
v 47.256899 117.968103 34.706847
v 60.880234 123.026315 47.396606
v 77.832098 123.513221 42.644295
v 85.997392 122.643643 24.014706
v 67.730153 124.608834 25.167693
v 18.636935 102.095497 -53.646804
v -9.422509 102.095497 -61.431011
v -31.924439 102.095497 -39.620160
v -31.924439 102.095497 -4.638277
v 31.124561 102.095497 -22.129217
v 31.417351 121.366769 -73.125749
v -13.983785 121.366769 -85.720853
v -52.986667 111.755996 -54.869957
v -50.392676 121.366769 6.171721
v -8.049365 106.181713 47.862570
v 31.401459 121.326105 28.884455
v 51.622753 121.366769 -22.129217
v 31.417351 145.187358 -73.125749
v -13.983785 145.187358 -85.720853
v -50.392673 145.187358 -50.430161
v -60.311739 146.497494 2.128075
v -13.983579 145.186817 41.462648
v 31.417348 145.187358 28.867319
v 60.602846 145.425337 -25.479779
v 28.946174 165.496263 -60.906643
v -9.422509 164.458630 -61.431011
v -35.410423 165.287784 -44.545663
v -31.924439 164.458630 -4.638277
v -9.422512 164.458630 17.172575
v 18.636933 164.458630 9.388374
v 31.124561 164.458630 -22.129217
v -8.331137 175.200671 -34.371014
vt 0.786827 0.725443
vt 0.856810 0.876509
vt 0.808544 0.908798
vt 0.917363 0.646340
vt 0.910147 0.859396
vt 0.862875 0.701395
vt 0.328775 0.532860
vt 0.709026 0.515203
vt 0.766055 0.869724
vt 0.800877 0.674465
vt 0.769588 0.630498
vt 0.732107 0.891249
vt 0.700469 0.915359
vt 0.807576 0.641988
vt 0.773040 0.484808
vt 0.713058 0.796714
vt 0.640395 0.843535
vt 0.666681 0.802142
vt 0.514588 0.800390
vt 0.289313 0.765197
vt 0.395758 0.766617
vt 0.532685 0.717255
vt 0.467247 0.736351
vt 0.456153 0.678405
vt 0.520881 0.666402
vt 0.389627 0.712954
vt 0.297215 0.691051
vt 0.212577 0.739912
vt 0.200075 0.685769
vt 0.149142 0.737502
vt 0.141644 0.674862
vt 0.089344 0.761451
vt 0.628761 0.639427
vt 0.448286 0.635168
vt 0.514828 0.611493
vt 0.377168 0.644812
vt 0.300202 0.642829
vt 0.212419 0.634445
vt 0.140570 0.625995
vt 0.611793 0.577196
vt 0.434667 0.580582
vt 0.498634 0.554701
vt 0.377453 0.585449
vt 0.295192 0.574954
vt 0.222711 0.575717
vt 0.159339 0.572233
vt 0.520942 0.507154
vt 0.192070 0.504952
vt 0.201782 0.425168
vt 0.101141 0.470918
vt 0.962296 0.278009
vt 0.155687 0.331423
vt 0.765395 0.397605
vt 0.807581 0.315376
vt 0.637959 0.398139
vt 0.649574 0.320343
vt 0.526919 0.340148
vt 0.437065 0.314496
vt 0.335522 0.419210
vt 0.312805 0.335745
vt 0.941805 0.161659
vt 0.145531 0.248774
vt 0.800628 0.198536
vt 0.665191 0.233291
vt 0.531544 0.223745
vt 0.431521 0.220537
vt 0.296954 0.249535
vt 0.838444 0.047770
vt 0.180373 0.174143
vt 0.761252 0.113713
vt 0.641681 0.130887
vt 0.537234 0.136206
vt 0.432480 0.116609
vt 0.304063 0.135526
vt 0.214326 0.011352
vt 0.754498 0.925964
vt 0.734028 0.958322
vt 0.722495 0.992188
vt 0.643352 0.660154
vt 0.491452 0.817126
vt 0.570028 0.792795
vt 0.604325 0.738159
vt 0.612342 0.880315
vt 0.670975 0.949806
vt 0.807391 0.924444
vt 0.186515 0.814341
vt 0.596807 0.724946
vt 0.037063 0.689521
vt 0.097042 0.539280
vt 0.032284 0.627789
vt 0.536338 0.493136
vt 0.426411 0.485973
vt 0.851620 0.465121
vt 0.091690 0.095247
vt 0.649407 0.530229
vt 0.879814 0.425728
vt 0.010426 0.226027
vt 0.007813 0.341336
vt 0.696926 0.734046
vt 0.638724 0.545844
vt 0.962082 0.844530
vt 0.682248 0.007813
vt 0.414354 0.502585
vn 0.505595 -0.032353 -0.862164
vn 0.505595 -0.032353 -0.862164
vn 0.505595 -0.032353 -0.862164
vn 0.584393 -0.082023 -0.807315
vn 0.584393 -0.082023 -0.807315
vn 0.584393 -0.082023 -0.807315
vn -1.000000 0.000154 -0.000000
vn -1.000000 0.000154 -0.000000
vn -1.000000 0.000154 -0.000000
vn -0.993140 0.038506 -0.110412
vn -0.993140 0.038506 -0.110412
vn -0.993140 0.038506 -0.110412
vn 0.591158 -0.062664 -0.804118
vn 0.591158 -0.062664 -0.804118
vn 0.591158 -0.062664 -0.804118
vn 0.744663 -0.156482 -0.648838
vn 0.744663 -0.156482 -0.648838
vn 0.744663 -0.156482 -0.648838
vn 0.446360 -0.024679 0.894513
vn 0.446360 -0.024679 0.894513
vn 0.446360 -0.024679 0.894513
vn 0.231732 -0.100643 0.967559
vn 0.231732 -0.100643 0.967559
vn 0.231732 -0.100643 0.967559
vn 0.527872 -0.209674 -0.823036
vn 0.527872 -0.209674 -0.823036
vn 0.527872 -0.209674 -0.823036
vn 0.527872 -0.209674 -0.823036
vn 0.527872 -0.209674 -0.823036
vn 0.527872 -0.209674 -0.823036
vn -0.178055 -0.708100 0.683294
vn -0.178055 -0.708100 0.683294
vn -0.178055 -0.708100 0.683294
vn -0.180367 -0.631895 0.753775
vn -0.180367 -0.631895 0.753775
vn -0.180367 -0.631895 0.753775
vn -0.586573 0.795976 0.149513
vn -0.586573 0.795976 0.149513
vn -0.586573 0.795976 0.149513
vn -0.396937 0.910867 0.112973
vn -0.396936 0.910867 0.112973
vn -0.396937 0.910867 0.112973
vn -0.991862 0.095390 -0.084321
vn -0.991862 0.095390 -0.084321
vn -0.991862 0.095390 -0.084321
vn -0.977906 0.120810 -0.170600
vn -0.977906 0.120810 -0.170600
vn -0.977906 0.120810 -0.170600
vn -0.358812 -0.766359 0.532868
vn -0.358812 -0.766359 0.532868
vn -0.358812 -0.766359 0.532868
vn -0.358812 -0.766359 0.532867
vn -0.358812 -0.766359 0.532867
vn -0.358812 -0.766359 0.532867
vn 0.752117 -0.136175 -0.644808
vn 0.752117 -0.136175 -0.644807
vn 0.752117 -0.136175 -0.644808
vn 0.752117 -0.136175 -0.644807
vn 0.752117 -0.136175 -0.644807
vn 0.752117 -0.136175 -0.644807
vn -0.396936 0.910867 0.112974
vn -0.396936 0.910867 0.112974
vn -0.396936 0.910867 0.112974
vn -0.396936 0.910867 0.112974
vn -0.396936 0.910867 0.112974
vn -0.396936 0.910867 0.112974
vn 0.181277 -0.490555 0.852346
vn 0.181277 -0.490555 0.852346
vn 0.181277 -0.490555 0.852346
vn 0.402312 -0.544674 0.735850
vn 0.402312 -0.544674 0.735850
vn 0.402312 -0.544674 0.735850
vn 0.392471 -0.453469 -0.800207
vn 0.392471 -0.453469 -0.800208
vn 0.392471 -0.453469 -0.800208
vn -0.103372 -0.300585 -0.948137
vn -0.103372 -0.300585 -0.948137
vn -0.103372 -0.300585 -0.948137
vn -0.632759 0.766941 -0.106854
vn -0.632759 0.766941 -0.106854
vn -0.632759 0.766941 -0.106854
vn -0.768955 0.625775 0.130824
vn -0.768955 0.625775 0.130824
vn -0.768955 0.625775 0.130824
vn 0.323342 0.008472 0.946244
vn 0.323342 0.008472 0.946244
vn 0.323342 0.008472 0.946244
vn 0.230077 0.161912 0.959609
vn 0.230077 0.161912 0.959609
vn 0.230077 0.161912 0.959609
vn 0.631059 -0.344568 0.695009
vn 0.631059 -0.344568 0.695009
vn 0.631059 -0.344568 0.695009
vn 0.101713 -0.914988 -0.390450
vn 0.101713 -0.914988 -0.390450
vn 0.101713 -0.914988 -0.390451
vn -0.053986 -0.787158 -0.614384
vn -0.053986 -0.787158 -0.614384
vn -0.053986 -0.787158 -0.614384
vn -0.202033 -0.935315 -0.290463
vn -0.202033 -0.935315 -0.290463
vn -0.202033 -0.935315 -0.290463
vn -0.201250 -0.785411 -0.585344
vn -0.201250 -0.785411 -0.585344
vn -0.201250 -0.785411 -0.585344
vn -0.840801 -0.528345 -0.117921
vn -0.840801 -0.528345 -0.117921
vn -0.840801 -0.528345 -0.117921
vn -0.490903 -0.858616 0.147625
vn -0.490903 -0.858616 0.147625
vn -0.490903 -0.858616 0.147625
vn -0.515939 -0.632937 0.577232
vn -0.515939 -0.632937 0.577232
vn -0.515939 -0.632937 0.577232
vn -0.520153 -0.658067 0.544416
vn -0.520153 -0.658067 0.544416
vn -0.520153 -0.658067 0.544416
vn 0.389256 -0.803542 0.450332
vn 0.389256 -0.803542 0.450332
vn 0.389256 -0.803542 0.450332
vn 0.449671 -0.760927 0.467745
vn 0.449671 -0.760927 0.467745
vn 0.449671 -0.760927 0.467745
vn 0.601359 -0.764548 0.232020
vn 0.601359 -0.764548 0.232020
vn 0.601359 -0.764548 0.232020
vn 0.634897 -0.712672 0.298337
vn 0.634897 -0.712672 0.298337
vn 0.634897 -0.712672 0.298337
vn 0.595646 -0.768999 -0.232048
vn 0.595646 -0.768999 -0.232049
vn 0.595646 -0.768999 -0.232049
vn 0.554199 -0.817421 -0.157121
vn 0.554199 -0.817421 -0.157121
vn 0.554199 -0.817421 -0.157121
vn 0.120353 0.185532 -0.975240
vn 0.120353 0.185532 -0.975240
vn 0.120353 0.185532 -0.975240
vn 0.209940 0.000000 -0.977714
vn 0.209940 0.000000 -0.977714
vn 0.209940 0.000000 -0.977714
vn -0.594347 0.259637 -0.761144
vn -0.594347 0.259637 -0.761144
vn -0.594347 0.259637 -0.761144
vn -0.695813 0.000000 -0.718223
vn -0.695813 0.000000 -0.718223
vn -0.695813 0.000000 -0.718223
vn -0.984506 0.167554 0.051703
vn -0.984506 0.167554 0.051703
vn -0.984506 0.167554 0.051703
vn -0.999831 -0.007397 -0.016851
vn -0.999831 -0.007397 -0.016851
vn -0.999831 -0.007397 -0.016851
vn -0.643253 -0.092699 0.760021
vn -0.643253 -0.092699 0.760021
vn -0.643253 -0.092699 0.760021
vn -0.682194 0.021106 0.730866
vn -0.682194 0.021106 0.730866
vn -0.682194 0.021106 0.730866
vn 0.439761 0.249100 0.862879
vn 0.439761 0.249100 0.862879
vn 0.439761 0.249100 0.862879
vn 0.338341 0.000000 0.941024
vn 0.338341 0.000000 0.941024
vn 0.338341 0.000000 0.941024
vn 0.915452 0.000000 0.402428
vn 0.915452 0.000000 0.402428
vn 0.915452 0.000000 0.402428
vn 0.833406 -0.254016 0.490826
vn 0.833406 -0.254016 0.490826
vn 0.833406 -0.254016 0.490826
vn 0.923990 0.044329 -0.379838
vn 0.923990 0.044329 -0.379838
vn 0.923990 0.044329 -0.379838
vn 0.816623 -0.311229 -0.486069
vn 0.816623 -0.311229 -0.486069
vn 0.816623 -0.311229 -0.486069
vn 0.173211 0.757372 -0.629591
vn 0.173211 0.757372 -0.629591
vn 0.173211 0.757372 -0.629591
vn 0.359095 0.882923 -0.302484
vn 0.359095 0.882923 -0.302484
vn 0.359095 0.882923 -0.302484
vn -0.529264 0.712274 -0.461026
vn -0.529264 0.712274 -0.461026
vn -0.529264 0.712274 -0.461026
vn -0.532719 0.742207 -0.406618
vn -0.532719 0.742207 -0.406618
vn -0.532719 0.742207 -0.406618
vn -0.679061 0.733310 0.033659
vn -0.679061 0.733310 0.033659
vn -0.679061 0.733310 0.033659
vn -0.752978 0.652454 0.085608
vn -0.752978 0.652454 0.085608
vn -0.752978 0.652454 0.085608
vn -0.560561 0.644782 0.519641
vn -0.560561 0.644782 0.519641
vn -0.560561 0.644782 0.519641
vn -0.571579 0.759347 0.310949
vn -0.571579 0.759347 0.310949
vn -0.571579 0.759347 0.310949
vn 0.172099 0.768336 0.616475
vn 0.172099 0.768336 0.616475
vn 0.172099 0.768336 0.616475
vn 0.157882 0.751807 0.640202
vn 0.157882 0.751807 0.640202
vn 0.157882 0.751807 0.640202
vn 0.618060 0.738088 0.270606
vn 0.618060 0.738088 0.270606
vn 0.618060 0.738088 0.270607
vn 0.664130 0.701564 0.258339
vn 0.664130 0.701564 0.258339
vn 0.664130 0.701564 0.258339
vn 0.500358 0.832509 -0.237847
vn 0.500358 0.832509 -0.237847
vn 0.500358 0.832509 -0.237847
vn 0.556753 0.731329 -0.393934
vn 0.556753 0.731329 -0.393933
vn 0.556753 0.731329 -0.393934
vn 0.048652 -0.979371 -0.196125
vn 0.048652 -0.979371 -0.196125
vn 0.048652 -0.979371 -0.196125
vn -0.090371 -0.981234 -0.170333
vn -0.090371 -0.981234 -0.170333
vn -0.090371 -0.981234 -0.170333
vn 0.048778 -0.998765 0.009427
vn 0.048778 -0.998765 0.009427
vn 0.048778 -0.998765 0.009427
vn 0.283128 -0.958410 0.035907
vn 0.283128 -0.958410 0.035907
vn 0.283127 -0.958410 0.035907
vn 0.219935 -0.972178 0.080616
vn 0.219935 -0.972178 0.080616
vn 0.219935 -0.972178 0.080616
vn 0.219932 -0.971993 -0.082825
vn 0.219932 -0.971993 -0.082825
vn 0.219932 -0.971993 -0.082825
vn 0.301460 0.945317 -0.124491
vn 0.301460 0.945317 -0.124491
vn 0.301460 0.945317 -0.124491
vn -0.138655 0.990310 -0.007807
vn -0.138655 0.990310 -0.007807
vn -0.138655 0.990310 -0.007807
vn -0.235113 0.958286 0.162508
vn -0.235113 0.958286 0.162508
vn -0.235113 0.958286 0.162508
vn -0.321747 0.946292 -0.031780
vn -0.321747 0.946292 -0.031780
vn -0.321747 0.946292 -0.031780
vn -0.009571 0.997634 0.068075
vn -0.009571 0.997634 0.068075
vn -0.009571 0.997634 0.068075
vn 0.106993 0.994260 0.000485
vn 0.106993 0.994260 0.000485
vn 0.106993 0.994260 0.000485
vn 0.084600 0.954387 -0.286337
vn 0.084600 0.954387 -0.286337
vn 0.084600 0.954387 -0.286337
vn 0.175300 -0.754966 -0.631899
vn 0.175300 -0.754966 -0.631899
vn 0.175300 -0.754966 -0.631899
vn 0.175300 -0.754965 -0.631900
vn 0.175300 -0.754965 -0.631900
vn 0.175300 -0.754965 -0.631900
vn -0.245651 -0.935643 -0.253434
vn -0.245651 -0.935643 -0.253434
vn -0.245651 -0.935643 -0.253434
vn -0.258775 -0.779778 -0.570072
vn -0.258775 -0.779778 -0.570072
vn -0.258775 -0.779778 -0.570072
vn -0.721989 -0.691904 0.000000
vn -0.721990 -0.691904 0.000000
vn -0.721990 -0.691904 0.000000
vn -0.502516 -0.850512 0.155264
vn -0.502517 -0.850512 0.155264
vn -0.502517 -0.850512 0.155264
vn -0.236409 -0.637758 0.733059
vn -0.236409 -0.637758 0.733059
vn -0.236408 -0.637758 0.733059
vn -0.457287 -0.877443 0.144852
vn -0.457287 -0.877443 0.144852
vn -0.457287 -0.877443 0.144852
vn 0.077965 -0.784346 0.615405
vn 0.077965 -0.784346 0.615405
vn 0.077965 -0.784346 0.615405
vn 0.455294 -0.848663 0.269217
vn 0.455294 -0.848663 0.269217
vn 0.455294 -0.848663 0.269217
vn 0.663886 -0.706153 0.246176
vn 0.663886 -0.706153 0.246176
vn 0.663886 -0.706153 0.246176
vn 0.665130 -0.698844 0.263094
vn 0.665130 -0.698844 0.263094
vn 0.665130 -0.698844 0.263094
vn 0.661054 -0.703141 -0.261917
vn 0.661054 -0.703141 -0.261917
vn 0.661054 -0.703141 -0.261917
vn 0.661054 -0.703141 -0.261917
vn 0.661054 -0.703141 -0.261917
vn 0.661054 -0.703141 -0.261917
vn 0.267323 0.000000 -0.963607
vn 0.267323 0.000000 -0.963607
vn 0.267323 0.000000 -0.963607
vn 0.267322 0.000000 -0.963607
vn 0.267322 0.000000 -0.963607
vn 0.267322 0.000000 -0.963607
vn -0.635824 0.149885 -0.757141
vn -0.635824 0.149885 -0.757141
vn -0.635824 0.149885 -0.757141
vn -0.695994 0.000000 -0.718047
vn -0.695994 0.000000 -0.718047
vn -0.695994 0.000000 -0.718047
vn -0.996837 0.073252 0.030828
vn -0.996837 0.073252 0.030828
vn -0.996837 0.073252 0.030828
vn -0.908721 -0.384723 -0.161908
vn -0.908721 -0.384723 -0.161908
vn -0.908721 -0.384723 -0.161908
vn -0.699587 0.010794 0.714466
vn -0.699587 0.010794 0.714466
vn -0.699587 0.010794 0.714466
vn -0.643673 -0.132785 0.753693
vn -0.643673 -0.132785 0.753693
vn -0.643673 -0.132785 0.753693
vn 0.359646 0.204109 0.910491
vn 0.359645 0.204109 0.910491
vn 0.359646 0.204109 0.910491
vn 0.267327 0.000514 0.963606
vn 0.267327 0.000514 0.963606
vn 0.267327 0.000514 0.963606
vn 0.929630 -0.000354 0.368495
vn 0.929630 -0.000354 0.368495
vn 0.929630 -0.000354 0.368495
vn 0.852437 -0.254583 0.456661
vn 0.852437 -0.254583 0.456661
vn 0.852437 -0.254582 0.456661
vn 0.929686 0.000000 -0.368352
vn 0.929686 0.000000 -0.368352
vn 0.929686 0.000000 -0.368352
vn 0.794951 -0.364286 -0.485127
vn 0.794951 -0.364286 -0.485127
vn 0.794951 -0.364286 -0.485127
vn 0.175300 0.754965 -0.631900
vn 0.175300 0.754965 -0.631900
vn 0.175300 0.754965 -0.631900
vn -0.002225 0.515343 -0.856981
vn -0.002225 0.515343 -0.856981
vn -0.002225 0.515343 -0.856981
vn -0.475282 0.730529 -0.490342
vn -0.475282 0.730528 -0.490342
vn -0.475282 0.730528 -0.490342
vn -0.445965 0.541128 -0.712949
vn -0.445965 0.541128 -0.712949
vn -0.445965 0.541128 -0.712949
vn -0.551558 0.824770 -0.124653
vn -0.551558 0.824770 -0.124653
vn -0.551558 0.824770 -0.124653
vn -0.810491 0.579862 0.082846
vn -0.810491 0.579862 0.082846
vn -0.810491 0.579862 0.082846
vn -0.384759 0.788725 0.479450
vn -0.384759 0.788725 0.479450
vn -0.384759 0.788725 0.479450
vn -0.475289 0.730520 0.490348
vn -0.475289 0.730520 0.490348
vn -0.475289 0.730519 0.490348
vn 0.175297 0.754962 0.631905
vn 0.175297 0.754962 0.631905
vn 0.175297 0.754962 0.631905
vn 0.175300 0.754966 0.631899
vn 0.175300 0.754966 0.631899
vn 0.175300 0.754966 0.631899
vn 0.541783 0.787275 0.294396
vn 0.541783 0.787275 0.294396
vn 0.541783 0.787275 0.294396
vn 0.661054 0.703141 0.261917
vn 0.661054 0.703141 0.261917
vn 0.661054 0.703141 0.261917
vn 0.785673 0.386319 -0.483193
vn 0.785673 0.386319 -0.483193
vn 0.785673 0.386319 -0.483193
vn 0.541775 0.840486 -0.007945
vn 0.541775 0.840486 -0.007945
vn 0.541775 0.840486 -0.007945
vn 0.080982 -0.953010 -0.291913
vn 0.080982 -0.953010 -0.291913
vn 0.080982 -0.953010 -0.291913
vn -0.206116 -0.955143 -0.212647
vn -0.206115 -0.955143 -0.212647
vn -0.206115 -0.955143 -0.212647
vn -0.322435 -0.946592 0.000000
vn -0.322435 -0.946592 0.000000
vn -0.322435 -0.946592 0.000000
vn -0.254484 -0.955364 0.150060
vn -0.254484 -0.955364 0.150060
vn -0.254484 -0.955364 0.150060
vn 0.347281 -0.909147 -0.229885
vn 0.347281 -0.909147 -0.229885
vn 0.347281 -0.909147 -0.229885
vn 0.357327 -0.923186 -0.141577
vn 0.357327 -0.923186 -0.141577
vn 0.357327 -0.923186 -0.141577
vn -0.020106 0.929534 -0.368188
vn -0.020106 0.929534 -0.368188
vn -0.020106 0.929534 -0.368188
vn -0.201134 0.913205 -0.354403
vn -0.201134 0.913205 -0.354403
vn -0.201134 0.913205 -0.354403
vn -0.360095 0.931531 0.050810
vn -0.360095 0.931531 0.050810
vn -0.360096 0.931531 0.050810
vn -0.190393 0.961856 0.196426
vn -0.190393 0.961856 0.196426
vn -0.190393 0.961856 0.196426
vn 0.056828 0.977143 0.204846
vn 0.056828 0.977143 0.204846
vn 0.056828 0.977143 0.204846
vn 0.234604 0.967637 0.092953
vn 0.234604 0.967637 0.092953
vn 0.234604 0.967637 0.092953
vn 0.259421 0.965699 0.011267
vn 0.259421 0.965699 0.011267
vn 0.259421 0.965699 0.011267
vn -0.179849 0.052488 0.982293
vn -0.179849 0.052488 0.982293
vn -0.179849 0.052488 0.982293
vn 0.614568 0.106912 0.781586
vn 0.614568 0.106912 0.781586
vn 0.614568 0.106912 0.781586
vn 0.030499 0.027577 0.999154
vn 0.030499 0.027577 0.999154
vn 0.030499 0.027577 0.999154
vn 0.143077 0.043011 0.988776
vn 0.143077 0.043011 0.988777
vn 0.143077 0.043011 0.988776
s off
g pCylinder8
usemtl initialShadingGroup
f 2/2/1 1/3/2 4/1/3
f 4/1/4 1/3/5 5/99/6
f 3/5/7 6/6/8 1/101/9
f 1/101/10 6/6/11 5/4/12
f 4/1/13 5/99/14 12/8/15
f 12/8/16 5/99/17 7/100/18
f 3/5/19 2/2/20 6/6/21
f 6/6/22 2/2/23 4/1/24
f 9/85/25 18/76/26 8/9/27
f 8/9/28 18/76/29 15/12/30
f 10/13/31 11/77/32 8/84/33
f 8/84/34 11/77/35 9/78/36
f 11/77/37 10/13/38 18/76/39
f 18/76/40 10/13/41 15/12/42
f 6/6/43 13/15/44 5/4/45
f 5/4/46 13/15/47 7/93/48
f 8/84/49 14/83/50 10/13/51
f 10/13/52 14/83/53 17/17/54
f 15/12/55 16/18/56 8/9/57
f 8/9/58 16/18/59 14/16/60
f 15/12/61 10/13/62 16/18/63
f 16/18/64 10/13/65 17/17/66
f 17/17/67 14/83/68 20/81/69
f 20/81/70 14/83/71 19/80/72
f 19/79/73 14/16/74 21/82/75
f 21/82/76 14/16/77 16/18/78
f 17/17/79 20/81/80 16/18/81
f 16/18/82 20/81/83 21/82/84
f 18/11/85 12/8/86 13/15/87
f 4/1/88 9/10/89 6/6/90
f 6/6/91 9/10/92 11/14/93
f 22/22/94 23/23/95 27/25/96
f 27/25/97 23/23/98 28/24/99
f 21/21/100 29/26/101 23/23/102
f 23/23/103 29/26/104 28/24/105
f 20/20/106 30/27/107 21/21/108
f 21/21/109 30/27/110 29/26/111
f 20/20/112 24/28/113 30/27/114
f 30/27/115 24/28/116 31/29/117
f 24/28/118 25/30/119 31/29/120
f 31/29/121 25/30/122 32/31/123
f 26/32/124 33/88/125 25/30/126
f 25/30/127 33/88/128 32/31/129
f 26/87/130 22/22/131 33/33/132
f 33/33/133 22/22/134 27/25/135
f 27/25/136 28/24/137 34/35/138
f 34/35/139 28/24/140 35/34/141
f 29/26/142 36/36/143 28/24/144
f 28/24/145 36/36/146 35/34/147
f 29/26/148 30/27/149 36/36/150
f 36/36/151 30/27/152 37/37/153
f 31/29/154 38/38/155 30/27/156
f 30/27/157 38/38/158 37/37/159
f 31/29/160 32/31/161 38/38/162
f 38/38/163 32/31/164 39/39/165
f 32/31/166 33/88/167 39/39/168
f 39/39/169 33/88/170 40/90/171
f 27/25/172 34/35/173 33/33/174
f 33/33/175 34/35/176 40/40/177
f 35/34/178 42/41/179 34/35/180
f 34/35/181 42/41/182 41/42/183
f 35/34/184 36/36/185 42/41/186
f 42/41/187 36/36/188 43/43/189
f 37/37/190 44/44/191 36/36/192
f 36/36/193 44/44/194 43/43/195
f 38/38/196 45/45/197 37/37/198
f 37/37/199 45/45/200 44/44/201
f 38/38/202 39/39/203 45/45/204
f 45/45/205 39/39/206 46/46/207
f 40/90/208 47/89/209 39/39/210
f 39/39/211 47/89/212 46/46/213
f 34/35/214 41/42/215 40/40/216
f 40/40/217 41/42/218 47/47/219
f 23/23/220 22/22/221 19/19/222
f 21/21/223 23/23/224 19/19/225
f 24/28/226 20/20/227 19/86/228
f 25/30/229 24/28/230 19/86/231
f 26/32/232 25/30/233 19/86/234
f 22/22/235 26/87/236 19/19/237
f 41/42/238 42/41/239 48/103/240
f 42/41/241 43/43/242 48/103/243
f 43/43/244 44/44/245 48/103/246
f 44/44/247 45/45/248 48/48/249
f 45/45/250 46/46/251 48/48/252
f 46/46/253 47/89/254 48/48/255
f 47/47/256 41/42/257 48/103/258
f 49/49/259 50/50/260 54/52/261
f 54/52/262 50/50/263 55/98/264
f 51/53/265 56/54/266 50/96/267
f 50/96/268 56/54/269 55/51/270
f 52/55/271 57/56/272 51/53/273
f 51/53/274 57/56/275 56/54/276
f 52/55/277 13/91/278 57/56/279
f 57/56/280 13/91/281 58/57/282
f 12/92/283 59/58/284 13/91/285
f 13/91/286 59/58/287 58/57/288
f 53/59/289 60/60/290 12/92/291
f 12/92/292 60/60/293 59/58/294
f 53/59/295 49/49/296 60/60/297
f 60/60/298 49/49/299 54/52/300
f 54/52/301 55/98/302 61/62/303
f 61/62/304 55/98/305 62/97/306
f 56/54/307 63/63/308 55/51/309
f 55/51/310 63/63/311 62/61/312
f 56/54/313 57/56/314 63/63/315
f 63/63/316 57/56/317 64/64/318
f 58/57/319 65/65/320 57/56/321
f 57/56/322 65/65/323 64/64/324
f 58/57/325 59/58/326 65/65/327
f 65/65/328 59/58/329 66/66/330
f 59/58/331 60/60/332 66/66/333
f 66/66/334 60/60/335 67/67/336
f 54/52/337 61/62/338 60/60/339
f 60/60/340 61/62/341 67/67/342
f 62/97/343 69/94/344 61/62/345
f 61/62/346 69/94/347 68/69/348
f 62/61/349 63/63/350 69/68/351
f 69/68/352 63/63/353 70/70/354
f 64/64/355 71/71/356 63/63/357
f 63/63/358 71/71/359 70/70/360
f 64/64/361 65/65/362 71/71/363
f 71/71/364 65/65/365 72/72/366
f 65/65/367 66/66/368 72/72/369
f 72/72/370 66/66/371 73/73/372
f 67/67/373 74/74/374 66/66/375
f 66/66/376 74/74/377 73/73/378
f 61/62/379 68/69/380 67/67/381
f 67/67/382 68/69/383 74/74/384
f 50/50/385 49/49/386 7/7/387
f 51/53/388 50/96/389 7/95/390
f 52/55/391 51/53/392 7/95/393
f 13/91/394 52/55/395 7/95/396
f 53/59/397 12/92/398 7/7/399
f 49/49/400 53/59/401 7/7/402
f 68/69/403 69/94/404 75/75/405
f 69/68/406 70/70/407 75/102/408
f 70/70/409 71/71/410 75/102/411
f 71/71/412 72/72/413 75/102/414
f 72/72/415 73/73/416 75/102/417
f 73/73/418 74/74/419 75/75/420
f 74/74/421 68/69/422 75/75/423
f 6/6/424 11/14/425 13/15/426
f 13/15/427 11/14/428 18/11/429
f 9/10/430 4/1/431 18/11/432
f 18/11/433 4/1/434 12/8/435
