# This file uses centimeters as units for non-parametric coordinates.

mtllib Tree_2.mtl
g default
v -8.968881 0.108933 -9.459502
v 6.268799 0.108933 -0.523732
v -8.968883 0.108933 7.079845
v 15.126540 51.795540 2.731143
v -6.104593 61.922112 -13.666358
v -8.960937 51.818474 8.502516
v 3.168986 99.823708 -22.066243
v 18.999272 112.509247 6.570320
v 0.254457 106.787704 17.230782
v 23.213931 135.633423 -60.405558
v -10.403816 136.116562 -68.783496
v -32.478681 120.922455 -40.644362
v -44.415826 122.828461 1.170241
v 39.127723 135.665009 -20.451041
v 38.138732 159.382324 -83.622928
v -17.452720 160.318680 -100.630580
v -58.188577 150.458954 -54.494906
v -72.027353 134.610565 8.335634
v -11.076253 142.197906 64.525785
v 39.388457 160.605209 42.447938
v 64.780043 159.927338 -20.013322
v 32.061129 186.265289 -76.551471
v -18.732721 189.975494 -99.943530
v -54.306405 193.587006 -50.879847
v -60.720472 200.853088 10.236961
v -16.214486 200.431030 31.994855
v 39.402232 192.059097 37.893857
v 74.352172 189.463379 -22.137723
v 32.145636 210.095642 -55.169143
v -19.267080 210.846725 -60.976725
v -42.028741 217.425903 -46.279712
v -37.602796 232.205292 -0.339026
v -12.492441 224.943604 5.786134
v 22.968461 221.129852 14.832765
v 55.697661 209.613678 -10.675082
v -18.217668 234.886002 -28.515727
vt 0.377712 0.648229
vt 0.157426 0.675441
vt 0.135398 0.602656
vt 0.419525 0.847815
vt 0.157365 0.748461
vt 0.377913 0.752350
vt 0.992188 0.163148
vt 0.632804 0.622154
vt 0.615413 0.716884
vt 0.908331 0.291241
vt 0.991529 0.350460
vt 0.007813 0.455231
vt 0.854260 0.360507
vt 0.109739 0.240348
vt 0.134253 0.352414
vt 0.217086 0.197268
vt 0.236134 0.252380
vt 0.381756 0.165139
vt 0.531134 0.135939
vt 0.843292 0.183786
vt 0.737901 0.205327
vt 0.072331 0.536055
vt 0.800585 0.406852
vt 0.200432 0.457017
vt 0.324322 0.366010
vt 0.434548 0.311902
vt 0.546860 0.234439
vt 0.694896 0.278908
vt 0.222062 0.559792
vt 0.719683 0.419500
vt 0.266582 0.496002
vt 0.378800 0.436381
vt 0.441059 0.411969
vt 0.533468 0.363074
vt 0.636028 0.326080
vt 0.597810 0.540582
vt 0.259822 0.061888
vt 0.912230 0.091062
vt 0.585763 0.885497
vt 0.729582 0.556452
vt 0.108712 0.100627
vt 0.008170 0.306642
vt 0.870977 0.535490
vt 0.945903 0.477609
vt 0.392677 0.527905
vt 0.559450 0.490784
vt 0.154506 0.819214
vt 0.382784 0.522214
vt 0.917510 0.094093
vt 0.315366 0.020411
vt 0.658250 0.007813
vn 0.505595 -0.032353 -0.862164
vn 0.505595 -0.032353 -0.862164
vn 0.505595 -0.032353 -0.862164
vn 0.584393 -0.082023 -0.807315
vn 0.584393 -0.082023 -0.807315
vn 0.584393 -0.082023 -0.807315
vn -1.000000 0.000154 -0.000000
vn -1.000000 0.000154 -0.000000
vn -1.000000 0.000154 -0.000000
vn -0.993140 0.038506 -0.110412
vn -0.993140 0.038506 -0.110412
vn -0.993140 0.038506 -0.110412
vn 0.614407 0.010695 -0.788917
vn 0.614407 0.010695 -0.788917
vn 0.614407 0.010695 -0.788917
vn 0.885418 -0.296051 -0.358313
vn 0.885418 -0.296051 -0.358313
vn 0.885418 -0.296051 -0.358313
vn 0.446360 -0.024679 0.894513
vn 0.446360 -0.024679 0.894513
vn 0.446360 -0.024679 0.894513
vn 0.231732 -0.100643 0.967560
vn 0.231732 -0.100643 0.967560
vn 0.231732 -0.100643 0.967560
vn -0.983821 0.172573 -0.048109
vn -0.983821 0.172573 -0.048109
vn -0.983821 0.172573 -0.048109
vn -0.970820 0.213204 -0.109785
vn -0.970820 0.213204 -0.109785
vn -0.970820 0.213204 -0.109785
vn 0.153080 -0.738334 -0.656833
vn 0.153080 -0.738334 -0.656833
vn 0.153080 -0.738334 -0.656833
vn 0.176818 -0.764391 -0.620033
vn 0.176818 -0.764391 -0.620033
vn 0.176818 -0.764391 -0.620033
vn -0.390095 -0.646846 -0.655299
vn -0.390095 -0.646846 -0.655299
vn -0.390095 -0.646846 -0.655299
vn -0.383024 -0.774338 -0.503680
vn -0.383024 -0.774338 -0.503680
vn -0.383024 -0.774338 -0.503680
vn -0.407755 -0.910012 -0.074924
vn -0.407755 -0.910012 -0.074924
vn -0.407755 -0.910012 -0.074924
vn -0.636488 -0.702909 -0.317492
vn -0.636488 -0.702909 -0.317492
vn -0.636488 -0.702909 -0.317492
vn -0.368189 -0.924254 0.100954
vn -0.368189 -0.924254 0.100954
vn -0.368189 -0.924254 0.100954
vn -0.363924 -0.785338 0.500803
vn -0.363924 -0.785338 0.500803
vn -0.363924 -0.785338 0.500803
vn 0.517706 -0.641635 0.565937
vn 0.517706 -0.641635 0.565937
vn 0.517706 -0.641635 0.565937
vn 0.492039 -0.636229 0.594231
vn 0.492039 -0.636229 0.594231
vn 0.492039 -0.636229 0.594231
vn 0.684066 -0.721298 -0.108545
vn 0.684066 -0.721298 -0.108545
vn 0.684066 -0.721298 -0.108545
vn 0.764890 -0.560747 0.317027
vn 0.764890 -0.560747 0.317027
vn 0.764890 -0.560747 0.317027
vn 0.665083 -0.698416 -0.264348
vn 0.665083 -0.698416 -0.264348
vn 0.665083 -0.698416 -0.264348
vn 0.670024 -0.689637 -0.274714
vn 0.670024 -0.689637 -0.274714
vn 0.670024 -0.689637 -0.274714
vn 0.283435 0.303381 -0.909739
vn 0.283435 0.303381 -0.909739
vn 0.283435 0.303381 -0.909739
vn 0.420339 0.039143 -0.906522
vn 0.420339 0.039143 -0.906522
vn 0.420339 0.039143 -0.906522
vn -0.756805 0.121951 -0.642164
vn -0.756805 0.121951 -0.642164
vn -0.756805 0.121951 -0.642164
vn -0.810153 -0.021395 -0.585828
vn -0.810153 -0.021395 -0.585828
vn -0.810153 -0.021395 -0.585828
vn -0.976499 0.103735 -0.188913
vn -0.976499 0.103735 -0.188913
vn -0.976499 0.103735 -0.188913
vn -0.977684 0.170407 -0.122865
vn -0.977684 0.170407 -0.122865
vn -0.977684 0.170407 -0.122865
vn -0.663490 0.319414 0.676576
vn -0.663490 0.319414 0.676576
vn -0.663490 0.319414 0.676576
vn -0.438296 0.049052 0.897491
vn -0.438296 0.049052 0.897491
vn -0.438296 0.049052 0.897491
vn 0.192335 0.491469 0.849392
vn 0.192335 0.491469 0.849392
vn 0.192335 0.491469 0.849392
vn -0.083107 0.142832 0.986252
vn -0.083107 0.142832 0.986252
vn -0.083107 0.142832 0.986252
vn 0.925234 0.053967 0.375538
vn 0.925234 0.053967 0.375538
vn 0.925234 0.053967 0.375538
vn 0.835539 -0.235065 0.496608
vn 0.835539 -0.235065 0.496608
vn 0.835539 -0.235065 0.496608
vn 0.879969 0.296555 -0.371094
vn 0.879969 0.296555 -0.371094
vn 0.879968 0.296555 -0.371094
vn 0.764013 -0.289091 -0.576810
vn 0.764014 -0.289091 -0.576810
vn 0.764013 -0.289091 -0.576810
vn 0.270138 0.850280 -0.451718
vn 0.270138 0.850280 -0.451718
vn 0.270138 0.850280 -0.451718
vn 0.093438 0.664737 -0.741212
vn 0.093438 0.664737 -0.741212
vn 0.093438 0.664737 -0.741212
vn -0.495471 0.762861 -0.415395
vn -0.495471 0.762861 -0.415394
vn -0.495471 0.762861 -0.415394
vn -0.423091 0.376904 -0.823976
vn -0.423091 0.376904 -0.823977
vn -0.423091 0.376904 -0.823977
vn -0.819297 0.552932 -0.151721
vn -0.819297 0.552932 -0.151721
vn -0.819297 0.552932 -0.151721
vn -0.881950 0.466811 -0.065208
vn -0.881950 0.466811 -0.065208
vn -0.881950 0.466811 -0.065208
vn -0.368525 0.529483 0.764092
vn -0.368525 0.529483 0.764092
vn -0.368525 0.529483 0.764092
vn 0.042874 0.726628 0.685692
vn 0.042874 0.726628 0.685692
vn 0.042874 0.726628 0.685692
vn 0.036774 0.727240 0.685397
vn 0.036774 0.727240 0.685397
vn 0.036774 0.727240 0.685397
vn -0.147113 0.562336 0.813717
vn -0.147113 0.562336 0.813718
vn -0.147113 0.562336 0.813718
vn 0.771393 0.470224 0.428768
vn 0.771393 0.470224 0.428768
vn 0.771393 0.470224 0.428768
vn 0.584048 0.680810 0.442024
vn 0.584048 0.680810 0.442024
vn 0.584048 0.680810 0.442024
vn 0.672777 0.492777 -0.551853
vn 0.672777 0.492777 -0.551853
vn 0.672777 0.492777 -0.551853
vn 0.602668 0.734874 -0.311049
vn 0.602668 0.734874 -0.311049
vn 0.602668 0.734874 -0.311049
vn 0.146852 -0.760017 -0.633094
vn 0.146852 -0.760018 -0.633094
vn 0.146852 -0.760018 -0.633094
vn -0.176621 -0.801489 -0.571332
vn -0.176621 -0.801489 -0.571332
vn -0.176621 -0.801489 -0.571332
vn -0.470242 -0.877491 -0.094246
vn -0.470242 -0.877491 -0.094246
vn -0.470242 -0.877491 -0.094246
vn -0.377344 -0.916270 0.134390
vn -0.377344 -0.916270 0.134390
vn -0.377344 -0.916270 0.134390
vn 0.705553 -0.704350 -0.078014
vn 0.705553 -0.704350 -0.078014
vn 0.705553 -0.704350 -0.078014
vn 0.685356 -0.675324 -0.272442
vn 0.685356 -0.675324 -0.272442
vn 0.685356 -0.675324 -0.272442
vn 0.078888 0.799902 -0.594924
vn 0.078888 0.799902 -0.594924
vn 0.078888 0.799902 -0.594924
vn -0.147669 0.797095 -0.585520
vn -0.147669 0.797095 -0.585520
vn -0.147669 0.797095 -0.585520
vn -0.456465 0.858873 -0.232329
vn -0.456465 0.858873 -0.232329
vn -0.456465 0.858873 -0.232329
vn 0.215667 0.946902 0.238463
vn 0.215667 0.946902 0.238463
vn 0.215667 0.946902 0.238463
vn 0.033743 0.961413 0.273033
vn 0.033743 0.961413 0.273033
vn 0.033743 0.961413 0.273033
vn 0.325499 0.945497 -0.009220
vn 0.325500 0.945497 -0.009220
vn 0.325500 0.945497 -0.009220
vn 0.356684 0.916941 -0.178872
vn 0.356684 0.916941 -0.178872
vn 0.356684 0.916942 -0.178872
vn 0.370941 -0.141673 0.917786
vn 0.370941 -0.141673 0.917786
vn 0.370941 -0.141673 0.917786
vn 0.370941 -0.141673 0.917786
s off
g pCylinder7
usemtl initialShadingGroup
f 2/2/1 1/3/2 4/1/3
f 4/1/4 1/3/5 5/45/6
f 3/5/7 6/6/8 1/47/9
f 1/47/10 6/6/11 5/4/12
f 4/1/13 5/45/14 8/8/15
f 8/8/16 5/45/17 7/46/18
f 3/5/19 2/2/20 6/6/21
f 6/6/22 2/2/23 4/1/24
f 6/6/25 9/9/26 5/4/27
f 5/4/28 9/9/29 7/39/30
f 10/10/31 11/11/32 15/13/33
f 15/13/34 11/11/35 16/44/36
f 12/14/37 17/15/38 11/42/39
f 11/42/40 17/15/41 16/12/42
f 13/16/43 18/17/44 12/14/45
f 12/14/46 18/17/47 17/15/48
f 13/16/49 9/37/50 18/17/51
f 18/17/52 9/37/53 19/18/54
f 8/50/55 20/19/56 9/37/57
f 9/37/58 20/19/59 19/18/60
f 14/20/61 21/21/62 8/38/63
f 8/51/64 21/21/65 20/19/66
f 14/20/67 10/10/68 21/21/69
f 21/21/70 10/10/71 15/13/72
f 15/13/73 16/44/74 22/23/75
f 22/23/76 16/44/77 23/43/78
f 17/15/79 24/24/80 16/12/81
f 16/12/82 24/24/83 23/22/84
f 17/15/85 18/17/86 24/24/87
f 24/24/88 18/17/89 25/25/90
f 19/18/91 26/26/92 18/17/93
f 18/17/94 26/26/95 25/25/96
f 19/18/97 20/19/98 26/26/99
f 26/26/100 20/19/101 27/27/102
f 20/19/103 21/21/104 27/27/105
f 27/27/106 21/21/107 28/28/108
f 15/13/109 22/23/110 21/21/111
f 21/21/112 22/23/113 28/28/114
f 23/43/115 30/40/116 22/23/117
f 22/23/118 30/40/119 29/30/120
f 23/22/121 24/24/122 30/29/123
f 30/29/124 24/24/125 31/31/126
f 25/25/127 32/32/128 24/24/129
f 24/24/130 32/32/131 31/31/132
f 25/25/133 26/26/134 32/32/135
f 32/32/136 26/26/137 33/33/138
f 26/26/139 27/27/140 33/33/141
f 33/33/142 27/27/143 34/34/144
f 28/28/145 35/35/146 27/27/147
f 27/27/148 35/35/149 34/34/150
f 22/23/151 29/30/152 28/28/153
f 28/28/154 29/30/155 35/35/156
f 11/11/157 10/10/158 7/7/159
f 12/14/160 11/42/161 7/41/162
f 13/16/163 12/14/164 7/41/165
f 9/37/166 13/16/167 7/41/168
f 14/20/169 8/49/170 7/7/171
f 10/10/172 14/20/173 7/7/174
f 29/30/175 30/40/176 36/36/177
f 30/29/178 31/31/179 36/48/180
f 31/31/181 32/32/182 36/48/183
f 32/32/184 33/33/185 36/48/186
f 33/33/187 34/34/188 36/48/189
f 34/34/190 35/35/191 36/36/192
f 35/35/193 29/30/194 36/36/195
f 6/6/196 4/1/197 8/8/198 9/9/199
