# This file uses centimeters as units for non-parametric coordinates.

mtllib gedrehtoben.mtl
g default
v 123.999985 250.000000 823.000000
v 123.999985 250.000000 673.000000
v -25.999985 249.999985 823.000000
v -26.000000 196.814819 823.000000
v -17.625534 249.999985 673.000000
v -26.055588 249.999985 699.514778
v 124.000000 99.999969 672.999992
v 93.259323 99.999985 672.999985
v -26.067520 249.999985 673.000000
v -26.067551 100.000008 672.999992
v -25.999985 99.999985 823.000000
v 124.000008 101.024475 823.000000
vt 0.627048 -0.020939
vt 0.700000 0.000000
vt 0.669085 0.386913
vt 0.659775 0.350764
vt 0.625000 0.075000
vt 0.625000 0.999999
vt 0.550000 0.925000
vt 0.625000 0.925000
vt 0.598407 0.075000
vt 0.550000 0.075000
vt 0.550000 0.888111
vt 0.664866 0.438949
vt 0.667242 0.409976
vt 0.550000 0.744919
vt 0.550540 0.999934
vt 0.551991 -0.015116
vn -0.000000 1.000000 0.000000
vn -0.000000 1.000000 0.000000
vn -0.000000 1.000000 -0.000000
vn -0.000000 1.000000 -0.000000
vn -0.000000 1.000000 0.000000
vn 1.000000 0.000000 0.000000
vn 1.000000 0.000000 0.000000
vn 1.000000 0.000000 0.000000
vn 0.000000 0.000000 1.000000
vn -0.000000 0.000000 1.000000
vn 0.000000 0.000000 1.000000
vn 0.000000 0.000000 1.000000
vn -0.000000 0.000000 -1.000000
vn -0.000000 0.000000 -1.000000
vn 0.000000 0.000000 -1.000000
vn 0.000000 0.000000 -1.000000
vn -1.000000 -0.000000 0.000450
vn -1.000000 0.000000 0.000450
vn -1.000000 0.000000 0.000450
vn -1.000000 -0.000000 0.000450
vn -1.000000 -0.000000 0.000450
vn -0.000000 0.000000 -1.000000
vn -0.000000 0.000000 -1.000000
vn -1.000000 -0.000000 0.000450
vn 1.000000 0.000000 -0.000000
vn 1.000000 0.000000 0.000000
vn 1.000000 0.000000 0.000000
vn 0.000000 0.000000 1.000000
vn 0.000000 0.000000 1.000000
vn 0.000000 0.000000 1.000000
s off
g polySurface1 Cross:Cross
usemtl Cross:initialShadingGroup
f 1/1/1 2/2/2 5/3/3 6/4/4 3/5/5
f 1/6/6 7/7/7 2/8/8
f 3/5/9 4/9/10 11/10/11 1/1/12
s 1
f 2/8/13 7/7/14 8/11/15 5/12/16
s 2
f 11/10/17 4/9/18 6/4/19 9/13/20 10/14/21
s 1
f 5/12/16 8/11/15 10/14/22 9/13/23
s 2
f 6/4/19 4/9/18 3/5/24
s off
f 12/15/25 7/7/26 1/6/27
f 11/10/28 12/16/29 1/1/30
g default
v -376.000000 250.000000 823.000000
v -376.000000 250.000000 672.999992
v -225.999969 250.000000 672.999992
v -226.000000 250.000000 823.000000
v -376.000000 100.000000 673.000000
v -376.000000 94.374207 785.134171
v -376.000000 92.474487 823.000000
v -226.000000 99.999992 823.000000
v -226.000000 100.000000 672.899338
vt 0.626526 0.243125
vt 0.550000 0.325000
vt 0.547618 0.264960
vt 0.546814 0.244685
vt 0.625000 0.175000
vt 0.663386 0.340000
vt 0.700000 0.250000
vt 0.550000 0.175000
vt 0.625000 0.325000
vt 0.569446 0.502100
vn -1.000000 -0.000000 0.000000
vn -1.000000 -0.000000 0.000000
vn -1.000000 0.000000 0.000000
vn -1.000000 0.000000 0.000000
vn -0.000000 1.000000 0.000000
vn -0.000000 1.000000 0.000000
vn -0.000000 1.000000 0.000000
vn -0.000000 1.000000 0.000000
vn 0.000000 0.000000 1.000000
vn 0.000000 0.000000 1.000000
vn 0.000000 0.000000 1.000000
vn 0.000000 0.000000 1.000000
vn 0.000000 0.000000 1.000000
vn 0.000000 0.000000 1.000000
vn -1.000000 -0.000000 0.000000
vn -1.000000 -0.000000 0.000000
vn -1.000000 -0.000000 0.000000
vn -0.000336 0.000336 -1.000000
vn -0.000336 0.000336 -1.000000
vn -0.000336 0.000336 -1.000000
vn -0.000336 0.000336 -1.000000
vn 1.000000 0.000000 0.000000
vn 1.000000 0.000000 0.000000
vn 1.000000 0.000000 0.000000
vn 1.000000 0.000000 0.000000
s off
g Cross:Cross polySurface3
usemtl Cross:initialShadingGroup
f 13/17/31 17/18/32 18/19/33 19/20/34
f 16/21/35 15/22/36 14/23/37 13/17/38
f 19/20/39 20/24/40 13/17/41
f 13/17/42 20/24/43 16/21/44
f 14/25/45 17/18/46 13/17/47
f 15/22/48 21/26/49 17/18/50 14/25/51
f 16/21/52 20/24/53 21/26/54 15/22/55
g default
v -376.000000 250.000000 323.000000
v -376.000000 250.000000 473.000000
v -226.000000 250.000000 323.000000
v -226.000000 250.000000 472.899315
v -376.000000 100.000000 473.000008
v -226.000031 99.999969 472.899330
v -226.000000 100.000000 323.000000
v -376.000000 102.266602 323.000000
vt 0.625000 0.500000
vt 0.550000 0.425000
vt 0.625000 0.425000
vt 0.625000 0.575000
vt 0.550000 0.575000
vt 0.800000 0.250000
vt 0.800000 0.175000
vt 0.875000 0.175000
vt 0.875008 0.250000
vt 0.550000 0.547070
vt 0.625000 0.545000
vt 0.555800 0.500037
vn -1.000000 -0.000000 0.000000
vn -1.000000 -0.000000 0.000000
vn -1.000000 -0.000000 0.000000
vn -0.000000 0.000000 -1.000000
vn -0.000000 0.000000 -1.000000
vn -0.000000 0.000000 -1.000000
vn -0.000000 1.000000 0.000000
vn -0.000000 1.000000 0.000000
vn -0.000000 1.000000 0.000000
vn -0.000000 1.000000 0.000000
vn 0.000671 0.000000 1.000000
vn 0.000671 0.000000 1.000000
vn 0.000671 0.000000 1.000000
vn 0.000671 0.000000 1.000000
vn 1.000000 0.000000 0.000000
vn 1.000000 0.000000 0.000000
vn 1.000000 0.000000 0.000000
vn 1.000000 0.000000 0.000000
vn -1.000000 0.000000 0.000000
vn -1.000000 -0.000000 0.000000
vn -1.000000 -0.000000 0.000000
vn -0.000000 0.000000 -1.000000
vn -0.000000 0.000000 -1.000000
vn 0.000000 0.000000 -1.000000
s off
g Cross:Cross polySurface5
usemtl Cross:initialShadingGroup
f 22/27/56 26/28/57 23/29/58
f 24/30/59 28/31/60 22/27/61
f 23/32/62 25/33/63 24/34/64 22/35/65
f 27/36/66 25/37/67 23/29/68 26/28/69
f 28/31/70 24/30/71 25/37/72 27/36/73
f 29/38/74 26/28/75 22/27/76
f 22/27/77 28/31/78 29/38/79
g default
v 123.999985 250.000000 323.000000
v 123.999985 250.000000 473.000008
v -26.067566 249.999985 472.899338
v -26.000000 249.999969 322.899338
v 124.000000 177.966614 395.033371
v 124.000015 208.947510 323.000000
v 45.978622 250.000000 472.947670
v 93.659164 250.000000 322.979630
v 106.551331 232.551315 323.000000
v 123.999985 144.433838 473.000000
v -26.067574 99.999992 472.899338
v 124.000008 100.000000 473.000000
v -25.999992 99.999977 323.000000
v 124.000000 95.699921 323.000000
vt 0.638771 0.716715
vt 0.596141 0.768716
vt 0.617233 0.719161
vt 0.749979 0.372870
vt 0.711690 0.407028
vt 0.754087 0.211617
vt 0.842380 0.068642
vt 0.628445 0.711863
vt 0.661265 0.647165
vt 0.625000 0.825000
vt 0.572217 0.825000
vt 0.549836 0.699651
vt 0.550000 0.825000
vt 0.670071 0.607693
vt 0.550000 0.675000
vt 0.800000 0.000000
vt 0.865809 -0.008498
vt 0.557817 0.725908
vn 1.000000 0.000000 0.000000
vn 1.000000 0.000000 0.000000
vn 1.000000 0.000000 0.000000
vn -0.000000 1.000000 0.000000
vn -0.000000 1.000000 0.000000
vn -0.000000 1.000000 -0.000000
vn -0.000000 1.000000 -0.000000
vn 0.000155 -0.000155 -1.000000
vn 0.000671 -0.000671 -1.000000
vn 0.000671 -0.000671 -1.000000
vn 1.000000 0.000000 0.000000
vn 1.000000 0.000000 0.000000
vn 1.000000 0.000000 0.000000
vn 1.000000 0.000000 0.000000
vn -0.000671 -0.000000 1.000000
vn -0.000671 -0.000000 1.000000
vn -0.000671 -0.000000 1.000000
vn -0.000671 -0.000000 1.000000
vn -0.000671 -0.000000 1.000000
vn -1.000000 -0.000000 -0.000451
vn -1.000000 -0.000000 -0.000451
vn -1.000000 -0.000000 -0.000451
vn -1.000000 -0.000000 -0.000451
vn -0.000000 1.000000 0.000000
vn -0.000000 1.000000 0.000000
vn 0.000000 0.000000 -1.000000
vn 0.000000 0.000000 -1.000000
vn 0.000155 -0.000155 -1.000000
vn 0.000018 -0.000018 -1.000000
vn 0.000671 -0.000671 -1.000000
vn 1.000000 0.000000 0.000000
vn -0.000671 -0.000000 1.000000
vn 0.000000 0.000000 -1.000000
vn 0.000018 -0.000018 -1.000000
vn 1.000000 0.000000 0.000000
vn 1.000000 0.000000 0.000000
s 1
g Cross:Cross polySurface7
usemtl Cross:initialShadingGroup
f 30/39/80 34/40/81 35/41/82
s 2
f 33/42/83 32/43/84 36/44/85 37/45/86
s 3
f 30/39/87 38/46/88 37/47/89
s 4
f 31/48/90 39/49/91 34/40/92 30/39/93
s 5
f 32/43/94 40/50/95 41/51/96 39/49/97 36/52/98
s off
f 33/42/99 42/53/100 40/50/101 32/43/102
s 2
f 37/45/86 36/44/85 31/54/103 30/55/104
s 6
f 35/41/105 38/46/106 30/39/107
s 3
f 37/47/89 38/46/88 42/53/108 33/42/109
s 4
f 34/40/92 39/49/91 41/51/110
s 5
f 36/52/98 39/49/97 31/48/111
s 6
f 43/56/112 42/53/113 38/46/106 35/41/105
s 1
f 35/41/82 34/40/81 41/51/114 43/56/115
g default
v 124.000000 -250.000000 823.000000
v -376.000000 -250.000000 823.000000
v -376.000000 -250.000000 323.000000
v 124.000000 -250.000000 323.000000
v -26.067520 249.999985 673.000000
v 124.000000 99.999969 672.999992
v -25.999985 99.999985 823.000000
v -226.000000 99.999992 823.000000
v -376.000000 100.000000 673.000000
v -376.000000 100.000000 473.000008
v -226.000000 100.000000 323.000000
v -25.999992 99.999977 323.000000
v 124.000008 100.000000 473.000000
v -226.000031 99.999969 472.899330
v -226.000000 100.000000 672.899338
v -26.067551 100.000008 672.999992
v -26.067574 99.999992 472.899338
v 123.999985 100.000000 576.312420
v -17.625534 249.999985 673.000000
v -26.055588 249.999985 699.514778
v 93.259323 99.999985 672.999985
v -376.000000 92.474487 823.000000
v -376.000000 102.266602 323.000000
v 124.000000 95.699921 323.000000
v 124.000008 101.024475 823.000000
v -376.000000 -250.000000 449.219421
v -376.000000 100.000000 523.487774
v -376.000000 6.020630 823.000000
v -376.000000 94.374207 785.134171
vt 0.550000 0.175000
vt 0.373513 0.248078
vt 0.375136 -0.001397
vt 0.550000 0.075000
vt 0.550000 0.425000
vt 0.374944 0.500135
vt 0.550000 0.325000
vt 0.376446 0.746505
vt 0.550000 0.575000
vt 0.550000 0.675000
vt 0.375092 0.999780
vt 0.550000 0.825000
vt 0.550000 0.925000
vt 0.125000 0.250000
vt 0.125000 0.000000
vt 0.667242 0.409976
vt 0.550000 0.547070
vt 0.569446 0.502100
vt 0.550000 0.744919
vt 0.549836 0.699651
vt 0.550000 0.876656
vt 0.669085 0.386913
vt 0.659775 0.350764
vt 0.550000 0.888111
vt 0.546814 0.244685
vt 0.555800 0.500037
vt 0.557817 0.725908
vt 0.550540 0.999934
vt 0.551991 -0.015116
vt 0.374583 0.436506
vt 0.187734 0.249515
vt 0.550000 0.399756
vt 0.503066 0.245542
vt 0.547618 0.264960
vn 0.000000 0.000000 1.000000
vn 0.000000 0.000000 1.000000
vn 0.000000 0.000000 1.000000
vn 0.000000 0.000000 1.000000
vn -1.000000 -0.000000 0.000000
vn -1.000000 -0.000000 0.000000
vn -1.000000 0.000000 0.000000
vn -1.000000 0.000000 0.000000
vn -0.000000 0.000000 -1.000000
vn -0.000000 0.000000 -1.000000
vn -0.000000 0.000000 -1.000000
vn 0.000018 -0.000018 -1.000000
vn 1.000000 0.000000 0.000000
vn 1.000000 0.000000 0.000000
vn 1.000000 0.000000 0.000000
vn 1.000000 0.000000 0.000000
vn 1.000000 0.000000 0.000000
vn 0.000000 -1.000000 0.000000
vn 0.000000 -1.000000 0.000000
vn 0.000000 -1.000000 0.000000
vn 0.000000 -1.000000 0.000000
vn 0.000000 -1.000000 0.000000
vn -1.000000 -0.000000 0.000000
vn -1.000000 -0.000000 0.000000
vn -1.000000 0.000000 0.000000
vn 1.000000 0.000000 0.000000
vn 1.000000 0.000000 0.000000
vn 1.000000 0.000000 -0.000000
vn 0.000000 0.000000 -1.000000
vn -0.000000 0.000000 -1.000000
vn -0.000000 0.000000 -1.000000
vn 0.000000 0.000000 1.000000
vn 0.000000 0.000000 1.000000
vn 0.000000 0.000000 1.000000
vn -0.000000 0.000000 -1.000000
vn 0.000018 -0.000018 -1.000000
vn 0.000000 0.000000 -1.000000
vn -0.000000 1.000000 0.000000
vn -0.000000 1.000000 0.000000
vn -0.000000 1.000000 0.000000
vn -0.000000 1.000000 0.000000
vn -0.000000 1.000000 0.000000
vn 0.000000 1.000000 -0.000000
vn -0.000000 1.000000 0.000000
vn -0.000000 1.000000 0.000000
vn -0.000000 1.000000 0.000000
vn -0.000000 1.000000 0.000000
vn 0.000000 1.000000 0.000000
vn 0.000000 1.000000 -0.000000
vn -0.000000 1.000000 0.000000
vn -0.000000 1.000000 0.000000
vn -0.000000 1.000000 0.000000
vn -0.000000 1.000000 0.000000
vn -0.000000 1.000000 0.000000
vn -0.000000 1.000000 0.000000
vn -0.000000 1.000000 0.000000
vn -0.000000 1.000000 0.000000
vn -0.000000 1.000000 0.000000
vn -0.000000 1.000000 0.000000
vn 1.000000 0.000000 -0.000000
vn 1.000000 0.000000 0.000000
vn 1.000000 0.000000 0.000000
vn 0.000000 1.000000 0.000001
vn 0.000000 1.000000 0.000001
vn -0.000000 1.000000 0.000000
vn -0.000000 1.000000 0.000000
vn -1.000000 -0.000000 0.000000
vn -1.000000 -0.000000 0.000000
vn -1.000000 -0.000000 0.000000
vn -1.000000 -0.000000 0.000000
vn 0.000000 0.000000 1.000000
vn 0.000000 0.000000 1.000000
vn -0.000000 0.000000 1.000000
vn -0.000000 0.000000 1.000000
vn -1.000000 -0.000000 0.000000
vn -1.000000 -0.000000 0.000000
vn -1.000000 0.000000 0.000000
s off
g Cross:Cross polySurface8 polySurface6 polySurface4 polySurface2
usemtl Cross:initialShadingGroup
f 51/57/116 45/58/117 44/59/118 50/60/119
s 1
f 53/61/120 46/62/121 69/86/122 70/88/123
s off
f 47/64/124 46/62/125 54/65/126 55/66/127
f 44/67/128 47/64/129 56/68/130 61/77/131 49/69/132
f 45/58/133 69/87/134 46/70/135 47/71/136 44/59/137
f 46/62/138 53/61/139 66/82/140
f 44/67/141 49/69/142 68/84/143
f 66/82/144 54/65/145 46/62/146
f 44/59/147 68/85/148 50/60/149
f 47/64/150 55/66/151 67/83/152
f 57/73/153 58/74/154 59/75/155 60/76/156
f 53/61/157 70/88/158 52/63/159 58/74/160 57/73/161
s 2
f 59/75/162 64/80/163 61/77/164 56/68/165 60/76/166
s off
f 57/73/167 60/76/168 55/66/169 54/65/170
f 59/75/171 58/74/172 51/57/173 50/60/174
f 67/83/175 56/68/176 47/64/177
f 63/79/178 62/78/179 48/72/180
s 2
f 61/77/164 64/80/163 49/69/181
s 3
f 72/90/182 52/63/183 45/58/184 71/89/185
s off
f 45/58/186 51/57/187 65/81/188 71/89/189
s 1
f 70/88/123 69/86/122 45/58/190 52/63/191
s 3
f 65/81/192 72/90/182 71/89/185
