# This file uses centimeters as units for non-parametric coordinates.

mtllib Cross.mtl
g default
v -250.000000 -250.000000 250.000000
v 250.000000 -250.000000 250.000000
v -250.000000 250.000000 250.000000
v 250.000000 250.000000 250.000000
v -250.000000 250.000000 -250.000000
v 250.000000 250.000000 -250.000000
v -250.000000 -250.000000 -250.000000
v 250.000000 -250.000000 -250.000000
v 250.000000 -250.000000 -99.999992
v 250.000000 250.000000 -100.000000
v 250.000000 250.000000 99.999992
v 250.000000 -250.000000 100.000000
v 250.000000 100.000008 -250.000000
v 250.000000 99.999969 99.999992
v 250.000000 100.000000 250.000000
v 250.000000 -100.000015 250.000000
v 250.000000 -99.932480 100.000000
v 250.000015 -99.932449 -100.100662
v 249.999985 -100.000000 -250.100662
v 99.999985 -250.000000 99.999992
v 100.000000 -100.000000 250.000000
v 99.999992 99.999992 250.000000
v 100.000000 250.000000 100.000000
v 99.999992 250.000000 -99.999992
v 100.000000 100.000000 -250.000000
v 99.999992 -99.999992 -250.000000
v 99.999992 -250.000000 -100.000000
v 99.999977 100.000000 -100.100670
v 100.000000 100.000000 99.899338
v 100.000031 -99.932457 99.999992
v 100.000008 -99.932457 -100.100662
v 250.000000 100.000000 -100.100685
vt 0.375136 -0.001397
vt 0.627048 -0.020939
vt 0.373513 0.248078
vt 0.626526 0.243125
vt 0.374944 0.500135
vt 0.625000 0.500000
vt 0.376446 0.746505
vt 0.638771 0.716715
vt 0.375092 0.999780
vt 0.625000 0.999999
vt 0.865809 -0.008498
vt 0.875008 0.250000
vt 0.125000 0.000000
vt 0.125000 0.250000
vt 0.625000 0.825000
vt 0.800000 0.000000
vt 0.625000 0.425000
vt 0.800000 0.250000
vt 0.625000 0.325000
vt 0.700000 0.250000
vt 0.625000 0.925000
vt 0.700000 0.000000
vt 0.625000 0.575000
vt 0.875000 0.175000
vt 0.663386 0.340000
vt 0.625000 0.175000
vt 0.625000 0.075000
vt 0.667242 0.409976
vt 0.711690 0.407028
vt 0.749979 0.372870
vt 0.550000 0.925000
vt 0.550000 0.075000
vt 0.550000 0.175000
vt 0.550000 0.325000
vt 0.550000 0.425000
vt 0.550000 0.575000
vt 0.550000 0.675000
vt 0.550000 0.825000
vt 0.550000 0.547070
vt 0.569446 0.502100
vt 0.550000 0.744919
vt 0.549836 0.699651
vt 0.800000 0.175000
vt 0.625000 0.545000
vn 0.000000 0.000000 1.000000
vn 0.000000 0.000000 1.000000
vn 0.000000 0.000000 1.000000
vn 0.000000 0.000000 1.000000
vn 0.000000 1.000000 0.000000
vn 0.000000 1.000000 0.000000
vn 0.000000 1.000000 0.000000
vn 0.000000 1.000000 0.000000
vn 0.000000 0.000000 -1.000000
vn 0.000000 0.000000 -1.000000
vn 0.000000 0.000000 -1.000000
vn -0.000018 -0.000018 -1.000000
vn 0.000000 -1.000000 0.000000
vn 0.000000 -1.000000 0.000000
vn 0.000000 -1.000000 0.000000
vn 0.000000 -1.000000 0.000000
vn -1.000000 0.000000 0.000000
vn -1.000000 0.000000 0.000000
vn -1.000000 0.000000 0.000000
vn -1.000000 0.000000 0.000000
vn 0.000000 -1.000000 0.000000
vn 0.000000 1.000000 0.000000
vn 0.000000 1.000000 0.000000
vn 0.000000 -1.000000 0.000000
vn 0.000000 0.000000 -1.000000
vn 1.000000 0.000000 0.000000
vn 1.000000 0.000000 0.000000
vn 1.000000 0.000000 0.000000
vn 1.000000 0.000000 0.000000
vn 0.000000 0.000000 1.000000
vn 0.000000 0.000000 1.000000
vn 1.000000 0.000000 0.000000
vn 1.000000 0.000000 0.000000
vn 1.000000 0.000000 0.000000
vn 1.000000 0.000000 0.000000
vn 1.000000 -0.000000 -0.000000
vn 1.000000 -0.000000 -0.000000
vn 1.000000 -0.000000 -0.000000
vn 1.000000 -0.000000 -0.000000
vn -0.000155 -0.000155 -1.000000
vn 0.000000 -1.000000 0.000000
vn 0.000000 0.000000 1.000000
vn 0.000000 0.000000 1.000000
vn 0.000000 1.000000 0.000000
vn 0.000000 1.000000 0.000000
vn 0.000000 0.000000 -1.000000
vn -0.000671 -0.000671 -1.000000
vn 0.000000 -1.000000 0.000000
vn 1.000000 0.000000 -0.000000
vn 1.000000 0.000000 -0.000000
vn 1.000000 0.000000 -0.000000
vn 1.000000 0.000000 -0.000000
vn 1.000000 -0.000000 -0.000000
vn 1.000000 -0.000000 -0.000000
vn 0.000336 0.000336 -1.000000
vn 0.000336 0.000336 -1.000000
vn 0.000336 0.000336 -1.000000
vn 0.000336 0.000336 -1.000000
vn 0.000000 -0.000000 -1.000000
vn 0.000000 -0.000000 -1.000000
vn 0.000000 -0.000000 -1.000000
vn 0.000000 -0.000000 -1.000000
vn 1.000000 -0.000000 -0.000000
vn 1.000000 -0.000000 -0.000000
vn -0.000000 0.000671 1.000000
vn -0.000000 0.000671 1.000000
vn -0.000000 0.000671 1.000000
vn -0.000000 0.000671 1.000000
vn 1.000000 0.000000 0.000000
vn 1.000000 0.000000 0.000000
vn 1.000000 0.000000 0.000000
vn 1.000000 0.000000 0.000000
vn 0.000000 -0.000671 1.000000
vn 0.000000 -0.000671 1.000000
vn 0.000000 -0.000671 1.000000
vn 0.000000 -0.000671 1.000000
vn 0.000000 -1.000000 0.000000
vn 0.000000 -1.000000 0.000000
vn 0.000000 -1.000000 0.000000
vn 0.000000 -1.000000 0.000000
vn -0.000000 -1.000000 0.000000
vn -0.000000 -1.000000 0.000000
vn -0.000000 -1.000000 0.000000
vn -0.000000 -1.000000 0.000000
vn 0.000000 1.000000 0.000450
vn 0.000000 1.000000 0.000450
vn 0.000000 1.000000 0.000450
vn 0.000000 1.000000 0.000450
vn -0.000000 1.000000 -0.000451
vn -0.000000 1.000000 -0.000451
vn -0.000000 1.000000 -0.000451
vn -0.000000 1.000000 -0.000451
vn 1.000000 0.000000 0.000000
vn 1.000000 0.000000 0.000000
vn 1.000000 0.000000 0.000000
vn 1.000000 0.000000 0.000000
vn 1.000000 0.000000 0.000000
vn 1.000000 0.000000 0.000000
vn 1.000000 0.000000 0.000000
vn 1.000000 0.000000 0.000000
s 1
g Cross
usemtl initialShadingGroup
f 22/33/1 3/3/2 1/1/3 21/32/4
s 2
f 24/35/5 5/5/6 3/3/7 23/34/8
s 3
f 7/7/9 5/5/10 25/36/11 26/37/12
s 4
f 1/9/13 7/7/14 27/38/15 20/31/16
s off
f 3/3/17 5/14/18 7/13/19 1/1/20
s 4
f 8/8/21 27/38/15 7/7/14
s 2
f 5/5/6 24/35/5 6/6/22
f 4/4/23 23/34/8 3/3/7
s 4
f 1/9/13 20/31/16 2/10/24
s 3
f 6/6/25 25/36/11 5/5/10
s off
f 15/26/26 14/25/27 11/20/28 4/4/29
s 1
f 3/3/2 22/33/1 4/4/30
f 1/1/3 2/2/31 21/32/4
s off
f 2/2/32 12/22/33 17/28/34 16/27/35
f 19/30/36 18/29/37 9/16/38 8/11/39
s 3
f 7/7/9 26/37/12 8/8/40
s 4
f 2/10/24 20/31/16 12/21/41
s 1
f 16/27/42 21/32/4 2/2/31
f 4/4/30 22/33/1 15/26/43
s 2
f 11/19/44 23/34/8 4/4/23
f 6/6/22 24/35/5 10/17/45
s 3
f 13/23/46 25/36/11 6/6/25
f 8/8/40 26/37/12 19/30/47
s 4
f 9/15/48 27/38/15 8/8/21
s 5
f 28/39/49 29/40/50 30/41/51 31/42/52
f 24/35/53 23/34/54 29/40/50 28/39/49
s off
f 14/25/55 29/40/56 23/34/57 11/19/58
f 12/21/59 20/31/60 30/41/61 17/28/62
s 5
f 30/41/51 20/31/63 27/38/64 31/42/52
s off
f 18/29/65 31/42/66 27/38/67 9/15/68
f 10/18/69 32/43/70 13/24/71 6/12/72
f 28/39/73 32/44/74 10/17/75 24/35/76
f 25/36/77 13/23/78 32/44/79 28/39/80
f 15/26/81 22/33/82 29/40/83 14/25/84
f 21/32/85 16/27/86 17/28/87 30/41/88
f 19/30/89 26/37/90 31/42/91 18/29/92
f 28/39/93 31/42/94 26/37/95 25/36/96
f 30/41/97 29/40/98 22/33/99 21/32/100
