# This file uses centimeters as units for non-parametric coordinates.

mtllib Ground_Edge.mtl
g default
v -250.000000 -250.000000 250.000000
v 250.000000 -250.000000 250.000000
v -250.000000 250.000000 250.000000
v 250.000000 250.000000 250.000000
v -250.000000 250.000000 -250.000000
v -250.000000 -250.000000 -250.000000
v 250.000000 -250.000000 -250.000000
v 250.000000 250.000000 99.999992
v 250.000000 -99.932480 100.000000
v 249.999985 -100.000000 -250.100662
v 100.000000 250.000000 100.000000
v 100.000000 250.000000 -250.000000
v 99.999992 -99.999992 -250.000000
v 100.000031 -99.932457 99.999992
vt 0.375819 -0.001984
vt 0.633877 0.004374
vt 0.373908 0.247399
vt 0.627753 0.236867
vt 0.375000 0.500000
vt 0.375000 0.750000
vt 0.635778 0.723949
vt 0.371101 1.009424
vt 0.629152 0.989964
vt 0.851907 -0.009235
vt 0.125000 0.000000
vt 0.125000 0.250000
vt 0.625000 0.325000
vt 0.700000 0.250000
vt 0.667242 0.409976
vt 0.749979 0.372870
vt 0.550000 0.325000
vt 0.550000 0.500000
vt 0.550000 0.675000
vt 0.550000 0.744919
vn 0.000000 0.000000 1.000000
vn 0.000000 0.000000 1.000000
vn 0.000000 0.000000 1.000000
vn 0.000000 0.000000 1.000000
vn 0.000000 1.000000 0.000000
vn 0.000000 1.000000 0.000000
vn 0.000000 1.000000 0.000000
vn 0.000000 1.000000 0.000000
vn 0.000000 0.000000 -1.000000
vn 0.000000 0.000000 -1.000000
vn 0.000000 0.000000 -1.000000
vn -0.000016 -0.000016 -1.000000
vn 0.000000 -1.000000 0.000000
vn 0.000000 -1.000000 0.000000
vn 0.000000 -1.000000 0.000000
vn 0.000000 -1.000000 0.000000
vn -1.000000 0.000000 0.000000
vn -1.000000 0.000000 0.000000
vn -1.000000 0.000000 0.000000
vn -1.000000 0.000000 0.000000
vn 0.000000 1.000000 0.000000
vn -0.000155 -0.000155 -1.000000
vn 0.000000 1.000000 0.000000
vn -0.000671 -0.000671 -1.000000
vn 1.000000 0.000000 -0.000000
vn 1.000000 0.000000 -0.000000
vn 1.000000 0.000000 -0.000000
vn 1.000000 0.000000 -0.000000
vn 0.000000 1.000000 -0.000193
vn 0.000000 1.000000 -0.000193
vn 0.000000 1.000000 -0.000193
vn 0.000000 1.000000 -0.000193
vn 1.000000 0.000000 -0.000000
vn 1.000000 0.000000 -0.000000
vn 1.000000 0.000000 -0.000000
vn 1.000000 0.000000 -0.000000
vn 0.000000 0.000000 -1.000000
vn 0.000000 0.000000 -1.000000
vn 0.000000 0.000000 -1.000000
vn 0.000000 0.000000 -1.000000
vn 1.000000 0.000000 0.000000
vn 1.000000 0.000000 0.000000
vn 1.000000 0.000000 0.000000
vn 1.000000 0.000000 0.000000
s off
g Ground_Edge
usemtl initialShadingGroup
f 3/3/1 1/1/2 2/2/3 4/4/4
s 1
f 5/5/5 3/3/6 11/17/7 12/18/8
s 2
f 6/6/9 5/5/10 12/18/11 13/19/12
s off
f 1/8/13 6/6/14 7/7/15 2/9/16
f 5/12/17 6/11/18 1/1/19 3/3/20
s 1
f 4/4/21 11/17/7 3/3/6
s 2
f 13/19/12 7/7/22 6/6/9
s 1
f 8/13/23 11/17/7 4/4/21
s 2
f 7/7/22 13/19/12 10/16/24
s off
f 14/20/25 13/19/26 12/18/27 11/17/28
f 13/19/29 14/20/30 9/15/31 10/16/32
f 7/10/33 10/16/34 9/15/35 2/2/36
f 14/20/37 11/17/38 8/13/39 9/15/40
f 8/14/41 4/4/42 2/2/43 9/15/44
